<svg xmlns="http://www.w3.org/2000/svg" xmlns:xlink="http://www.w3.org/1999/xlink" width="597" height="92" viewBox="101 193 597 92" version="1.1"><defs><marker viewBox="0 0 20 20" markerWidth="10" markerHeight="10" orient="auto" refX="11" refY="10" id="markerSkqevoi0u6sg"><path d="M 1 5 L 11 10 L 1 15 Z" fill="#000000" style="stroke-width: 1; stroke-linecap: round; stroke-dasharray: 10000, 1;"/></marker><marker viewBox="0 0 20 20" markerWidth="20" markerHeight="20" orient="auto" refX="6" refY="6" id="markerSkqevoi0u6si"><circle cx="6" cy="6" r="3.5" fill="#ffffff" stroke="#000000" style="stroke-width: 1; stroke-linecap: round; stroke-dasharray: 10000, 1;"/></marker><marker viewBox="0 0 20 20" markerWidth="20" markerHeight="20" orient="auto" refX="8.5" refY="5" id="markerSkqevoi0u6sk"><path d="m 1 5 l 0 -3 l 7 3 l -7 3 z" fill="#ffffff" stroke="#000000" style="stroke-width: 1; stroke-linecap: butt; stroke-dasharray: 10000, 1;"/></marker><marker viewBox="0 0 20 20" markerWidth="10" markerHeight="10" orient="auto" refX="1" refY="10" id="markerSkqevoi0u6sm"><path d="M 11 5 L 1 10 L 11 15" fill="none" stroke="#000000" style="stroke-width: 1.5; stroke-linecap: round; stroke-dasharray: 10000, 1;"/></marker><marker viewBox="0 0 20 20" markerWidth="10" markerHeight="10" orient="auto" refX="12" refY="10" id="markerSkqevoi0u6so"><path d="M 1 5 L 11 10 L 1 15" fill="none" stroke="#000000" style="stroke-width: 1.5; stroke-linecap: round; stroke-dasharray: 10000, 1;"/></marker><marker viewBox="0 0 20 20" markerWidth="10" markerHeight="10" orient="auto" refX="-1" refY="10" id="markerSkqevoi0u6sq"><path d="M 0 10 L 8 6 L 16 10 L 8 14 Z" fill="#ffffff" stroke="#000000" style="stroke-width: 1; stroke-linecap: round; stroke-dasharray: 10000, 1;"/></marker><marker viewBox="0 0 20 20" markerWidth="10" markerHeight="10" orient="auto" refX="-5" refY="10" id="markerSkqevoi0u6ss"><path d="M 1 4 L 5 16" fill="#000000" stroke="#000000" style="stroke-width: 1; stroke-linecap: round; stroke-dasharray: 10000, 1;"/></marker></defs><g class="djs-group" xmlns="http://www.w3.org/2000/svg"><g data-element-id="StartEvent_1tku9o8" transform="matrix(1,0,0,1,107,221)" style="display: block;" class="djs-element djs-shape"><g class="djs-visual"><circle cx="18" cy="18" r="18" stroke="#000000" fill="#ffffff" style="stroke-width: 2;"></circle></g><rect x="0" y="0" width="36" height="36" fill="none" stroke="#ffffff" style="stroke-opacity: 0; stroke-width: 15;" class="djs-hit"></rect><rect x="-6" y="-6" width="48" height="48" fill="none" style="" class="djs-outline"></rect></g></g><g class="djs-group" xmlns="http://www.w3.org/2000/svg"><g data-element-id="StartEvent_1tku9o8_label" class="djs-element djs-shape" transform="matrix(1,0,0,1,80,257)" style="display: none;"><g class="djs-visual"><text class=" djs-label" style="font-family: Arial, sans-serif; font-size: 11px;"><tspan x="45" y="0"></tspan></text></g><rect x="0" y="0" width="90" height="20" fill="none" stroke="#ffffff" style="stroke-opacity: 0; stroke-width: 15;" class="djs-hit"></rect><rect x="-6" y="-6" width="102" height="32" fill="none" style="" class="djs-outline"></rect></g></g><g class="djs-group" xmlns="http://www.w3.org/2000/svg"><g data-element-id="EndEvent_04dbeuy" transform="matrix(1,0,0,1,656,221)" style="display: block;" class="djs-element djs-shape"><g class="djs-visual"><circle cx="18" cy="18" r="18" stroke="#000000" fill="#ffffff" style="stroke-width: 4;"></circle></g><rect x="0" y="0" width="36" height="36" fill="none" stroke="#ffffff" style="stroke-opacity: 0; stroke-width: 15;" class="djs-hit"></rect><rect x="-6" y="-6" width="48" height="48" fill="none" style="" class="djs-outline"></rect></g></g><g class="djs-group" xmlns="http://www.w3.org/2000/svg"><g data-element-id="EndEvent_04dbeuy_label" class="djs-element djs-shape" transform="matrix(1,0,0,1,629,257)" style="display: none;"><g class="djs-visual"><text class=" djs-label" style="font-family: Arial, sans-serif; font-size: 11px;"><tspan x="45" y="0"></tspan></text></g><rect x="0" y="0" width="90" height="20" fill="none" stroke="#ffffff" style="stroke-opacity: 0; stroke-width: 15;" class="djs-hit"></rect><rect x="-6" y="-6" width="102" height="32" fill="none" style="" class="djs-outline"></rect></g></g><g class="djs-group" xmlns="http://www.w3.org/2000/svg"><g data-element-id="ScriptTask_1v2eg93" class="djs-element djs-shape selected" transform="matrix(1,0,0,1,352,199)" style="display: block;"><g class="djs-visual"><rect x="0" y="0" width="100" height="80" rx="10" ry="10" stroke="#000000" fill="#ffffff" style="stroke-width: 2;"></rect><text class=" djs-label" style="font-family: Arial, sans-serif; font-size: 12px;"><tspan x="9.3671875" y="36.5">Получить скан </tspan><tspan x="37.5625" y="50.5">ДБЗ </tspan></text><path d="m 15,20 c 9.966553,-6.27276 -8.000926,-7.91932 2.968968,-14.938 l -8.802728,0 c -10.969894,7.01868 6.997585,8.66524 -2.968967,14.938 z m -7,-12 l 5,0 m -4.5,3 l 4.5,0 m -3,3 l 5,0m -4,3 l 5,0" fill="none" stroke="#000000" style="stroke-width: 1;"></path></g><rect x="0" y="0" width="100" height="80" fill="none" stroke="#ffffff" style="stroke-opacity: 0; stroke-width: 15;" class="djs-hit"></rect><rect x="-6" y="-6" width="112" height="92" fill="none" style="" class="djs-outline"></rect></g></g><g class="djs-group" xmlns="http://www.w3.org/2000/svg"><g data-element-id="SequenceFlow_0iaiqgb" class="djs-element djs-connection" style="display: block;"><g class="djs-visual"><path d="m  452,239L656,239 " fill="none" stroke="#000000" style="stroke-width: 2; stroke-linejoin: round; marker-end: url(&quot;#markerSkqevoi0u6sg&quot;);"></path></g><polyline points="452,239 656,239 " fill="none" stroke="#ffffff" style="stroke-opacity: 0; stroke-width: 15;" class="djs-hit"></polyline><rect x="446" y="233" width="216" height="12" fill="none" style="" class="djs-outline"></rect></g></g><g class="djs-group" xmlns="http://www.w3.org/2000/svg"><g data-element-id="SequenceFlow_0iaiqgb_label" class="djs-element djs-shape" transform="matrix(1,0,0,1,562,229)" style="display: none;"><g class="djs-visual"><text class=" djs-label" style="font-family: Arial, sans-serif; font-size: 11px;"><tspan x="45" y="0"></tspan></text></g><rect x="0" y="0" width="90" height="20" fill="none" stroke="#ffffff" style="stroke-opacity: 0; stroke-width: 15;" class="djs-hit"></rect><rect x="-6" y="-6" width="102" height="32" fill="none" style="" class="djs-outline"></rect></g></g><g class="djs-group" xmlns="http://www.w3.org/2000/svg"><g data-element-id="SequenceFlow_0zfbi4i" class="djs-element djs-connection" style="display: block;"><g class="djs-visual"><path d="m  143,239L352,239 " fill="none" stroke="#000000" style="stroke-width: 2; stroke-linejoin: round; marker-end: url(&quot;#markerSkqevoi0u6sg&quot;);"></path></g><polyline points="143,239 352,239 " fill="none" stroke="#ffffff" style="stroke-opacity: 0; stroke-width: 15;" class="djs-hit"></polyline><rect x="137" y="233" width="221" height="12" fill="none" style="" class="djs-outline"></rect></g></g><g class="djs-group" xmlns="http://www.w3.org/2000/svg"><g data-element-id="SequenceFlow_0zfbi4i_label" class="djs-element djs-shape" transform="matrix(1,0,0,1,256,229)" style="display: none;"><g class="djs-visual"><text class=" djs-label" style="font-family: Arial, sans-serif; font-size: 11px;"><tspan x="45" y="0"></tspan></text></g><rect x="0" y="0" width="90" height="20" fill="none" stroke="#ffffff" style="stroke-opacity: 0; stroke-width: 15;" class="djs-hit"></rect><rect x="-6" y="-6" width="102" height="32" fill="none" style="" class="djs-outline"></rect></g></g></svg>