<svg xmlns="http://www.w3.org/2000/svg" xmlns:xlink="http://www.w3.org/1999/xlink" width="896" height="227" viewBox="-289 132 896 227" version="1.1"><defs><marker viewBox="0 0 20 20" markerWidth="10" markerHeight="10" orient="auto" refX="11" refY="10" id="markerSkqevoi0u43i"><path d="M 1 5 L 11 10 L 1 15 Z" fill="#000000" style="stroke-width: 1; stroke-linecap: round; stroke-dasharray: 10000, 1;"/></marker><marker viewBox="0 0 20 20" markerWidth="20" markerHeight="20" orient="auto" refX="6" refY="6" id="markerSkqevoi0u43k"><circle cx="6" cy="6" r="3.5" fill="#ffffff" stroke="#000000" style="stroke-width: 1; stroke-linecap: round; stroke-dasharray: 10000, 1;"/></marker><marker viewBox="0 0 20 20" markerWidth="20" markerHeight="20" orient="auto" refX="8.5" refY="5" id="markerSkqevoi0u43m"><path d="m 1 5 l 0 -3 l 7 3 l -7 3 z" fill="#ffffff" stroke="#000000" style="stroke-width: 1; stroke-linecap: butt; stroke-dasharray: 10000, 1;"/></marker><marker viewBox="0 0 20 20" markerWidth="10" markerHeight="10" orient="auto" refX="1" refY="10" id="markerSkqevoi0u43o"><path d="M 11 5 L 1 10 L 11 15" fill="none" stroke="#000000" style="stroke-width: 1.5; stroke-linecap: round; stroke-dasharray: 10000, 1;"/></marker><marker viewBox="0 0 20 20" markerWidth="10" markerHeight="10" orient="auto" refX="12" refY="10" id="markerSkqevoi0u43q"><path d="M 1 5 L 11 10 L 1 15" fill="none" stroke="#000000" style="stroke-width: 1.5; stroke-linecap: round; stroke-dasharray: 10000, 1;"/></marker><marker viewBox="0 0 20 20" markerWidth="10" markerHeight="10" orient="auto" refX="-1" refY="10" id="markerSkqevoi0u43s"><path d="M 0 10 L 8 6 L 16 10 L 8 14 Z" fill="#ffffff" stroke="#000000" style="stroke-width: 1; stroke-linecap: round; stroke-dasharray: 10000, 1;"/></marker><marker viewBox="0 0 20 20" markerWidth="10" markerHeight="10" orient="auto" refX="-5" refY="10" id="markerSkqevoi0u43u"><path d="M 1 4 L 5 16" fill="#000000" stroke="#000000" style="stroke-width: 1; stroke-linecap: round; stroke-dasharray: 10000, 1;"/></marker></defs><g class="djs-group" xmlns="http://www.w3.org/2000/svg"><g data-element-id="StartEvent_07fn9p0" transform="matrix(1,0,0,1,-283,295)" style="display: block;" class="djs-element djs-shape"><g class="djs-visual"><circle cx="18" cy="18" r="18" stroke="#000000" fill="#ffffff" style="stroke-width: 2;"></circle></g><rect x="0" y="0" width="36" height="36" fill="none" stroke="#ffffff" style="stroke-opacity: 0; stroke-width: 15;" class="djs-hit"></rect><rect x="-6" y="-6" width="48" height="48" fill="none" style="" class="djs-outline"></rect></g></g><g class="djs-group" xmlns="http://www.w3.org/2000/svg"><g data-element-id="StartEvent_07fn9p0_label" class="djs-element djs-shape" transform="matrix(1,0,0,1,-310,331)" style="display: none;"><g class="djs-visual"><text class=" djs-label" style="font-family: Arial, sans-serif; font-size: 11px;"><tspan x="45" y="0"></tspan></text></g><rect x="0" y="0" width="90" height="20" fill="none" stroke="#ffffff" style="stroke-opacity: 0; stroke-width: 15;" class="djs-hit"></rect><rect x="-6" y="-6" width="102" height="32" fill="none" style="" class="djs-outline"></rect></g></g><g class="djs-group" xmlns="http://www.w3.org/2000/svg"><g data-element-id="EndEvent_134k281" transform="matrix(1,0,0,1,538,295)" style="display: block;" class="djs-element djs-shape"><g class="djs-visual"><circle cx="18" cy="18" r="18" stroke="#000000" fill="#ffffff" style="stroke-width: 4;"></circle></g><rect x="0" y="0" width="36" height="36" fill="none" stroke="#ffffff" style="stroke-opacity: 0; stroke-width: 15;" class="djs-hit"></rect><rect x="-6" y="-6" width="48" height="48" fill="none" style="" class="djs-outline"></rect></g></g><g class="djs-group" xmlns="http://www.w3.org/2000/svg"><g data-element-id="EndEvent_134k281_label" class="djs-element djs-shape" transform="matrix(1,0,0,1,511,331)" style="display: block;"><g class="djs-visual"><text class=" djs-label" style="font-family: Arial, sans-serif; font-size: 11px;"><tspan x="19.3203125" y="12">Успех при </tspan><tspan x="17.2890625" y="24">включении </tspan></text></g><rect x="0" y="0" width="90" height="20" fill="none" stroke="#ffffff" style="stroke-opacity: 0; stroke-width: 15;" class="djs-hit"></rect><rect x="-6" y="-6" width="102" height="32" fill="none" style="" class="djs-outline"></rect></g></g><g class="djs-group" xmlns="http://www.w3.org/2000/svg"><g data-element-id="ScriptTask_007toh7" class="djs-element djs-shape" transform="matrix(1,0,0,1,-163,273)" style="display: block;"><g class="djs-visual"><rect x="0" y="0" width="100" height="80" rx="10" ry="10" stroke="#000000" fill="#ffffff" style="stroke-width: 2;"></rect><text class=" djs-label" style="font-family: Arial, sans-serif; font-size: 12px;"><tspan x="9.1796875" y="43.5">Возврат ВНПТ</tspan></text><path d="m 15,20 c 9.966553,-6.27276 -8.000926,-7.91932 2.968968,-14.938 l -8.802728,0 c -10.969894,7.01868 6.997585,8.66524 -2.968967,14.938 z m -7,-12 l 5,0 m -4.5,3 l 4.5,0 m -3,3 l 5,0m -4,3 l 5,0" fill="none" stroke="#000000" style="stroke-width: 1;"></path></g><rect x="0" y="0" width="100" height="80" fill="none" stroke="#ffffff" style="stroke-opacity: 0; stroke-width: 15;" class="djs-hit"></rect><rect x="-6" y="-6" width="112" height="92" fill="none" style="" class="djs-outline"></rect></g></g><g class="djs-group" xmlns="http://www.w3.org/2000/svg"><g data-element-id="ExclusiveGateway_119agto" transform="matrix(1,0,0,1,413,288)" style="display: block;" class="djs-element djs-shape"><g class="djs-visual"><polygon points="25,0,50,25,25,50,0,25" stroke="#000000" fill="#ffffff" style="stroke-width: 2;"></polygon><path d="m 16,15 7.42857142857143,9.714285714285715 -7.42857142857143,9.714285714285715 3.428571428571429,0 5.714285714285715,-7.464228571428572 5.714285714285715,7.464228571428572 3.428571428571429,0 -7.42857142857143,-9.714285714285715 7.42857142857143,-9.714285714285715 -3.428571428571429,0 -5.714285714285715,7.464228571428572 -5.714285714285715,-7.464228571428572 -3.428571428571429,0 z" fill="#000000" stroke="#000000" style="stroke-width: 1;"></path></g><rect x="0" y="0" width="50" height="50" fill="none" stroke="#ffffff" style="stroke-opacity: 0; stroke-width: 15;" class="djs-hit"></rect><rect x="-6" y="-6" width="62" height="62" fill="none" style="" class="djs-outline"></rect></g></g><g class="djs-group" xmlns="http://www.w3.org/2000/svg"><g data-element-id="ExclusiveGateway_119agto_label" class="djs-element djs-shape" transform="matrix(1,0,0,1,393,338)" style="display: none;"><g class="djs-visual"><text class=" djs-label" style="font-family: Arial, sans-serif; font-size: 11px;"><tspan x="45" y="0"></tspan></text></g><rect x="0" y="0" width="90" height="20" fill="none" stroke="#ffffff" style="stroke-opacity: 0; stroke-width: 15;" class="djs-hit"></rect><rect x="-6" y="-6" width="102" height="32" fill="none" style="" class="djs-outline"></rect></g></g><g class="djs-group" xmlns="http://www.w3.org/2000/svg"><g data-element-id="EndEvent_1pr03yv" transform="matrix(1,0,0,1,420,138)" style="display: block;" class="djs-element djs-shape bpms_point_highlight_deep_or"><g class="djs-visual"><circle cx="18" cy="18" r="18" stroke="#000000" fill="#ffffff" style="stroke-width: 4;"></circle></g><rect x="0" y="0" width="36" height="36" fill="none" stroke="#ffffff" style="stroke-opacity: 0; stroke-width: 15;" class="djs-hit"></rect><rect x="-6" y="-6" width="48" height="48" fill="none" style="" class="djs-outline"></rect></g></g><g class="djs-group" xmlns="http://www.w3.org/2000/svg"><g data-element-id="EndEvent_1pr03yv_label" class="djs-element djs-shape" transform="matrix(1,0,0,1,393,174)" style="display: block;"><g class="djs-visual"><text class=" djs-label" style="font-family: Arial, sans-serif; font-size: 11px;"><tspan x="13.859375" y="12">Ошибка при </tspan><tspan x="17.2890625" y="24">включении </tspan></text></g><rect x="0" y="0" width="90" height="20" fill="none" stroke="#ffffff" style="stroke-opacity: 0; stroke-width: 15;" class="djs-hit"></rect><rect x="-6" y="-6" width="102" height="32" fill="none" style="" class="djs-outline"></rect></g></g><g class="djs-group" xmlns="http://www.w3.org/2000/svg"><g data-element-id="ScriptTask_0e2713w" class="djs-element djs-shape" transform="matrix(1,0,0,1,213,273)" style="display: block;"><g class="djs-visual"><rect x="0" y="0" width="100" height="80" rx="10" ry="10" stroke="#000000" fill="#ffffff" style="stroke-width: 2;"></rect><text class=" djs-label" style="font-family: Arial, sans-serif; font-size: 12px;"><tspan x="5.5390625" y="43.5">Возврат Исх ПТ</tspan></text><path d="m 15,20 c 9.966553,-6.27276 -8.000926,-7.91932 2.968968,-14.938 l -8.802728,0 c -10.969894,7.01868 6.997585,8.66524 -2.968967,14.938 z m -7,-12 l 5,0 m -4.5,3 l 4.5,0 m -3,3 l 5,0m -4,3 l 5,0" fill="none" stroke="#000000" style="stroke-width: 1;"></path></g><rect x="0" y="0" width="100" height="80" fill="none" stroke="#ffffff" style="stroke-opacity: 0; stroke-width: 15;" class="djs-hit"></rect><rect x="-6" y="-6" width="112" height="92" fill="none" style="" class="djs-outline"></rect></g></g><g class="djs-group" xmlns="http://www.w3.org/2000/svg"><g data-element-id="UserTask_1ypouuz" class="djs-element djs-shape selected" transform="matrix(1,0,0,1,8,273)" style="display: block;"><g class="djs-visual"><rect x="0" y="0" width="100" height="80" rx="10" ry="10" stroke="#000000" fill="#ffffff" style="stroke-width: 2;"></rect><text class=" djs-label" style="font-family: Arial, sans-serif; font-size: 12px;"><tspan x="11.953125" y="36.5">Отозвать Исх </tspan><tspan x="38.515625" y="50.5">ПТ? </tspan></text><path d="m 15,12 c 0.909,-0.845 1.594,-2.049 1.594,-3.385 0,-2.554 -1.805,-4.62199999 -4.357,-4.62199999 -2.55199998,0 -4.28799998,2.06799999 -4.28799998,4.62199999 0,1.348 0.974,2.562 1.89599998,3.405 -0.52899998,0.187 -5.669,2.097 -5.794,4.7560005 v 6.718 h 17 v -6.718 c 0,-2.2980005 -5.5279996,-4.5950005 -6.0509996,-4.7760005 zm -8,6 l 0,5.5 m 11,0 l 0,-5" fill="none" stroke="#000000" style="stroke-width: 0.5;"></path><path d="m 15,12 m 2.162,1.009 c 0,2.4470005 -2.158,4.4310005 -4.821,4.4310005 -2.66499998,0 -4.822,-1.981 -4.822,-4.4310005 " fill="none" stroke="#000000" style="stroke-width: 0.5;"></path><path d="m 15,12 m -6.9,-3.80 c 0,0 2.25099998,-2.358 4.27399998,-1.177 2.024,1.181 4.221,1.537 4.124,0.965 -0.098,-0.57 -0.117,-3.79099999 -4.191,-4.13599999 -3.57499998,0.001 -4.20799998,3.36699999 -4.20699998,4.34799999 z" fill="#000000" stroke="#000000" style="stroke-width: 0.5;"></path></g><rect x="0" y="0" width="100" height="80" fill="none" stroke="#ffffff" style="stroke-opacity: 0; stroke-width: 15;" class="djs-hit"></rect><rect x="-6" y="-6" width="112" height="92" fill="none" style="" class="djs-outline"></rect></g></g><g class="djs-group" xmlns="http://www.w3.org/2000/svg"><g data-element-id="SequenceFlow_1g1uegn" class="djs-element djs-connection" style="display: block;"><g class="djs-visual"><path d="m  -247,313L-208,313 L-208,313 L-163,313 " fill="none" stroke="#000000" style="stroke-width: 2; stroke-linejoin: round; marker-end: url(&quot;#markerSkqevoi0u43i&quot;);"></path></g><polyline points="-247,313 -208,313 -208,313 -163,313 " fill="none" stroke="#ffffff" style="stroke-opacity: 0; stroke-width: 15;" class="djs-hit"></polyline><rect x="-253" y="307" width="96" height="12" fill="none" style="" class="djs-outline"></rect></g></g><g class="djs-group" xmlns="http://www.w3.org/2000/svg"><g data-element-id="SequenceFlow_1g1uegn_label" class="djs-element djs-shape" transform="matrix(1,0,0,1,188,303)" style="display: none;"><g class="djs-visual"><text class=" djs-label" style="font-family: Arial, sans-serif; font-size: 11px;"><tspan x="45" y="0"></tspan></text></g><rect x="0" y="0" width="90" height="20" fill="none" stroke="#ffffff" style="stroke-opacity: 0; stroke-width: 15;" class="djs-hit"></rect><rect x="-6" y="-6" width="102" height="32" fill="none" style="" class="djs-outline"></rect></g></g><g class="djs-group" xmlns="http://www.w3.org/2000/svg"><g data-element-id="SequenceFlow_128x7ox" class="djs-element djs-connection" style="display: block;"><g class="djs-visual"><path d="m  -63,313L8,313 " fill="none" stroke="#000000" style="stroke-width: 2; stroke-linejoin: round; marker-end: url(&quot;#markerSkqevoi0u43i&quot;);"></path></g><polyline points="-63,313 8,313 " fill="none" stroke="#ffffff" style="stroke-opacity: 0; stroke-width: 15;" class="djs-hit"></polyline><rect x="-69" y="307" width="83" height="12" fill="none" style="" class="djs-outline"></rect></g></g><g class="djs-group" xmlns="http://www.w3.org/2000/svg"><g data-element-id="SequenceFlow_128x7ox_label" class="djs-element djs-shape" transform="matrix(1,0,0,1,417,303)" style="display: none;"><g class="djs-visual"><text class=" djs-label" style="font-family: Arial, sans-serif; font-size: 11px;"><tspan x="45" y="0"></tspan></text></g><rect x="0" y="0" width="90" height="20" fill="none" stroke="#ffffff" style="stroke-opacity: 0; stroke-width: 15;" class="djs-hit"></rect><rect x="-6" y="-6" width="102" height="32" fill="none" style="" class="djs-outline"></rect></g></g><g class="djs-group" xmlns="http://www.w3.org/2000/svg"><g data-element-id="SequenceFlow_1ibo5s0" class="djs-element djs-connection" style="display: block;"><g class="djs-visual"><path d="m  463,313L538,313 " fill="none" stroke="#000000" style="stroke-width: 2; stroke-linejoin: round; marker-end: url(&quot;#markerSkqevoi0u43i&quot;);"></path></g><polyline points="463,313 538,313 " fill="none" stroke="#ffffff" style="stroke-opacity: 0; stroke-width: 15;" class="djs-hit"></polyline><rect x="457" y="307" width="87" height="12" fill="none" style="" class="djs-outline"></rect></g></g><g class="djs-group" xmlns="http://www.w3.org/2000/svg"><g data-element-id="SequenceFlow_1ibo5s0_label" class="djs-element djs-shape" transform="matrix(1,0,0,1,456,303)" style="display: none;"><g class="djs-visual"><text class=" djs-label" style="font-family: Arial, sans-serif; font-size: 11px;"><tspan x="45" y="0"></tspan></text></g><rect x="0" y="0" width="90" height="20" fill="none" stroke="#ffffff" style="stroke-opacity: 0; stroke-width: 15;" class="djs-hit"></rect><rect x="-6" y="-6" width="102" height="32" fill="none" style="" class="djs-outline"></rect></g></g><g class="djs-group" xmlns="http://www.w3.org/2000/svg"><g data-element-id="SequenceFlow_0rtmksl" class="djs-element djs-connection" style="display: block;"><g class="djs-visual"><path d="m  438,288L438,174 " fill="none" stroke="#000000" style="stroke-width: 2; stroke-linejoin: round; marker-end: url(&quot;#markerSkqevoi0u43i&quot;);"></path></g><polyline points="438,288 438,174 " fill="none" stroke="#ffffff" style="stroke-opacity: 0; stroke-width: 15;" class="djs-hit"></polyline><rect x="432" y="168" width="12" height="126" fill="none" style="" class="djs-outline"></rect></g></g><g class="djs-group" xmlns="http://www.w3.org/2000/svg"><g data-element-id="SequenceFlow_0rtmksl_label" class="djs-element djs-shape" transform="matrix(1,0,0,1,393,221)" style="display: none;"><g class="djs-visual"><text class=" djs-label" style="font-family: Arial, sans-serif; font-size: 11px;"><tspan x="45" y="0"></tspan></text></g><rect x="0" y="0" width="90" height="20" fill="none" stroke="#ffffff" style="stroke-opacity: 0; stroke-width: 15;" class="djs-hit"></rect><rect x="-6" y="-6" width="102" height="32" fill="none" style="" class="djs-outline"></rect></g></g><g class="djs-group" xmlns="http://www.w3.org/2000/svg"><g data-element-id="SequenceFlow_001rfsg" class="djs-element djs-connection" style="display: block;"><g class="djs-visual"><path d="m  313,313L413,313 " fill="none" stroke="#000000" style="stroke-width: 2; stroke-linejoin: round; marker-end: url(&quot;#markerSkqevoi0u43i&quot;);"></path></g><polyline points="313,313 413,313 " fill="none" stroke="#ffffff" style="stroke-opacity: 0; stroke-width: 15;" class="djs-hit"></polyline><rect x="307" y="307" width="112" height="12" fill="none" style="" class="djs-outline"></rect></g></g><g class="djs-group" xmlns="http://www.w3.org/2000/svg"><g data-element-id="SequenceFlow_001rfsg_label" class="djs-element djs-shape" transform="matrix(1,0,0,1,310,303)" style="display: none;"><g class="djs-visual"><text class=" djs-label" style="font-family: Arial, sans-serif; font-size: 11px;"><tspan x="45" y="0"></tspan></text></g><rect x="0" y="0" width="90" height="20" fill="none" stroke="#ffffff" style="stroke-opacity: 0; stroke-width: 15;" class="djs-hit"></rect><rect x="-6" y="-6" width="102" height="32" fill="none" style="" class="djs-outline"></rect></g></g><g class="djs-group" xmlns="http://www.w3.org/2000/svg"><g data-element-id="SequenceFlow_03aeqf5" class="djs-element djs-connection" style="display: block;"><g class="djs-visual"><path d="m  108,313L213,313 " fill="none" stroke="#000000" style="stroke-width: 2; stroke-linejoin: round; marker-end: url(&quot;#markerSkqevoi0u43i&quot;);"></path></g><polyline points="108,313 213,313 " fill="none" stroke="#ffffff" style="stroke-opacity: 0; stroke-width: 15;" class="djs-hit"></polyline><rect x="102" y="307" width="117" height="12" fill="none" style="" class="djs-outline"></rect></g></g><g class="djs-group" xmlns="http://www.w3.org/2000/svg"><g data-element-id="SequenceFlow_03aeqf5_label" class="djs-element djs-shape" transform="matrix(1,0,0,1,-77,303)" style="display: none;"><g class="djs-visual"><text class=" djs-label" style="font-family: Arial, sans-serif; font-size: 11px;"><tspan x="45" y="0"></tspan></text></g><rect x="0" y="0" width="90" height="20" fill="none" stroke="#ffffff" style="stroke-opacity: 0; stroke-width: 15;" class="djs-hit"></rect><rect x="-6" y="-6" width="102" height="32" fill="none" style="" class="djs-outline"></rect></g></g></svg>