<svg xmlns="http://www.w3.org/2000/svg" xmlns:xlink="http://www.w3.org/1999/xlink" width="2273" height="401" viewBox="-705 18 2273 401" version="1.1"><defs><marker viewBox="0 0 20 20" markerWidth="10" markerHeight="10" orient="auto" refX="11" refY="10" id="markerSk0wms0ffmz"><path d="M 1 5 L 11 10 L 1 15 Z" fill="#000000" style="stroke-width: 1; stroke-linecap: round; stroke-dasharray: 10000, 1;"/></marker><marker viewBox="0 0 20 20" markerWidth="20" markerHeight="20" orient="auto" refX="6" refY="6" id="markerSk0wms0ffn1"><circle cx="6" cy="6" r="3.5" fill="#ffffff" stroke="#000000" style="stroke-width: 1; stroke-linecap: round; stroke-dasharray: 10000, 1;"/></marker><marker viewBox="0 0 20 20" markerWidth="20" markerHeight="20" orient="auto" refX="8.5" refY="5" id="markerSk0wms0ffn3"><path d="m 1 5 l 0 -3 l 7 3 l -7 3 z" fill="#ffffff" stroke="#000000" style="stroke-width: 1; stroke-linecap: butt; stroke-dasharray: 10000, 1;"/></marker><marker viewBox="0 0 20 20" markerWidth="10" markerHeight="10" orient="auto" refX="1" refY="10" id="markerSk0wms0ffn5"><path d="M 11 5 L 1 10 L 11 15" fill="none" stroke="#000000" style="stroke-width: 1.5; stroke-linecap: round; stroke-dasharray: 10000, 1;"/></marker><marker viewBox="0 0 20 20" markerWidth="10" markerHeight="10" orient="auto" refX="12" refY="10" id="markerSk0wms0ffn7"><path d="M 1 5 L 11 10 L 1 15" fill="none" stroke="#000000" style="stroke-width: 1.5; stroke-linecap: round; stroke-dasharray: 10000, 1;"/></marker><marker viewBox="0 0 20 20" markerWidth="10" markerHeight="10" orient="auto" refX="-1" refY="10" id="markerSk0wms0ffn9"><path d="M 0 10 L 8 6 L 16 10 L 8 14 Z" fill="#ffffff" stroke="#000000" style="stroke-width: 1; stroke-linecap: round; stroke-dasharray: 10000, 1;"/></marker><marker viewBox="0 0 20 20" markerWidth="10" markerHeight="10" orient="auto" refX="-5" refY="10" id="markerSk0wms0ffnb"><path d="M 1 4 L 5 16" fill="#000000" stroke="#000000" style="stroke-width: 1; stroke-linecap: round; stroke-dasharray: 10000, 1;"/></marker></defs><g class="djs-group" xmlns="http://www.w3.org/2000/svg"><g data-element-id="StartEvent_171rsxo" transform="matrix(1,0,0,1,-699,280)" style="display: block;" class="djs-element djs-shape"><g class="djs-visual"><circle cx="18" cy="18" r="18" stroke="#000000" fill="#ffffff" style="stroke-width: 2;"></circle></g><rect x="0" y="0" width="36" height="36" fill="none" stroke="#ffffff" style="stroke-opacity: 0; stroke-width: 15;" class="djs-hit"></rect><rect x="-6" y="-6" width="48" height="48" fill="none" style="" class="djs-outline"></rect></g></g><g class="djs-group" xmlns="http://www.w3.org/2000/svg"><g data-element-id="StartEvent_171rsxo_label" class="djs-element djs-shape" transform="matrix(1,0,0,1,-726,316)" style="display: none;"><g class="djs-visual"><text class=" djs-label" style="font-family: Arial, sans-serif; font-size: 11px;"><tspan x="45" y="0"></tspan></text></g><rect x="0" y="0" width="90" height="20" fill="none" stroke="#ffffff" style="stroke-opacity: 0; stroke-width: 15;" class="djs-hit"></rect><rect x="-6" y="-6" width="102" height="32" fill="none" style="" class="djs-outline"></rect></g></g><g class="djs-group" xmlns="http://www.w3.org/2000/svg"><g data-element-id="ScriptTask_026mvwa" class="djs-element djs-shape" transform="matrix(1,0,0,1,-582,258)" style="display: block;"><g class="djs-visual"><rect x="0" y="0" width="100" height="80" rx="10" ry="10" stroke="#000000" fill="#ffffff" style="stroke-width: 2;"></rect><text class=" djs-label" style="font-family: Arial, sans-serif; font-size: 12px;"><tspan x="18.375" y="43.40234375">Отзыв ПТП</tspan></text><path d="m 15,20 c 9.966553,-6.27276 -8.000926,-7.91932 2.968968,-14.938 l -8.802728,0 c -10.969894,7.01868 6.997585,8.66524 -2.968967,14.938 z m -7,-12 l 5,0 m -4.5,3 l 4.5,0 m -3,3 l 5,0m -4,3 l 5,0" fill="none" stroke="#000000" style="stroke-width: 1;"></path></g><rect x="0" y="0" width="100" height="80" fill="none" stroke="#ffffff" style="stroke-opacity: 0; stroke-width: 15;" class="djs-hit"></rect><rect x="-6" y="-6" width="112" height="92" fill="none" style="" class="djs-outline"></rect></g></g><g class="djs-group" xmlns="http://www.w3.org/2000/svg"><g data-element-id="ExclusiveGateway_1uc7zi8" transform="matrix(1,0,0,1,640,273)" style="display: block;" class="djs-element djs-shape"><g class="djs-visual"><polygon points="25,0,50,25,25,50,0,25" stroke="#000000" fill="#ffffff" style="stroke-width: 2;"></polygon><path d="m 16,15 7.42857142857143,9.714285714285715 -7.42857142857143,9.714285714285715 3.428571428571429,0 5.714285714285715,-7.464228571428572 5.714285714285715,7.464228571428572 3.428571428571429,0 -7.42857142857143,-9.714285714285715 7.42857142857143,-9.714285714285715 -3.428571428571429,0 -5.714285714285715,7.464228571428572 -5.714285714285715,-7.464228571428572 -3.428571428571429,0 z" fill="#000000" stroke="#000000" style="stroke-width: 1;"></path></g><rect x="0" y="0" width="50" height="50" fill="none" stroke="#ffffff" style="stroke-opacity: 0; stroke-width: 15;" class="djs-hit"></rect><rect x="-6" y="-6" width="62" height="62" fill="none" style="" class="djs-outline"></rect></g></g><g class="djs-group" xmlns="http://www.w3.org/2000/svg"><g data-element-id="ExclusiveGateway_1uc7zi8_label" class="djs-element djs-shape" transform="matrix(1,0,0,1,620,323)" style="display: none;"><g class="djs-visual"><text class=" djs-label" style="font-family: Arial, sans-serif; font-size: 11px;"><tspan x="45" y="0"></tspan></text></g><rect x="0" y="0" width="90" height="20" fill="none" stroke="#ffffff" style="stroke-opacity: 0; stroke-width: 15;" class="djs-hit"></rect><rect x="-6" y="-6" width="102" height="32" fill="none" style="" class="djs-outline"></rect></g></g><g class="djs-group" xmlns="http://www.w3.org/2000/svg"><g data-element-id="EndEvent_1j7emzh" transform="matrix(1,0,0,1,647,95)" style="display: block;" class="djs-element djs-shape bpms_point_highlight_deep_or"><g class="djs-visual"><circle cx="18" cy="18" r="18" stroke="#000000" fill="#ffffff" style="stroke-width: 4;"></circle></g><rect x="0" y="0" width="36" height="36" fill="none" stroke="#ffffff" style="stroke-opacity: 0; stroke-width: 15;" class="djs-hit"></rect><rect x="-6" y="-6" width="48" height="48" fill="none" style="" class="djs-outline"></rect></g></g><g class="djs-group" xmlns="http://www.w3.org/2000/svg"><g data-element-id="EndEvent_1j7emzh_label" class="djs-element djs-shape" transform="matrix(1,0,0,1,620,131)" style="display: block;"><g class="djs-visual"><text class=" djs-label" style="font-family: Arial, sans-serif; font-size: 11px;"><tspan x="13.734375" y="12.015625">Ошибка при </tspan><tspan x="27.0078125" y="24.03125">отзыве </tspan></text></g><rect x="0" y="0" width="90" height="20" fill="none" stroke="#ffffff" style="stroke-opacity: 0; stroke-width: 15;" class="djs-hit"></rect><rect x="-6" y="-6" width="102" height="32" fill="none" style="" class="djs-outline"></rect></g></g><g class="djs-group" xmlns="http://www.w3.org/2000/svg"><g data-element-id="EndEvent_1wiv77x" transform="matrix(1,0,0,1,1499,280)" style="display: block;" class="djs-element djs-shape bpms_point_highlight_light_gr"><g class="djs-visual"><circle cx="18" cy="18" r="18" stroke="#000000" fill="#ffffff" style="stroke-width: 4;"></circle></g><rect x="0" y="0" width="36" height="36" fill="none" stroke="#ffffff" style="stroke-opacity: 0; stroke-width: 15;" class="djs-hit"></rect><rect x="-6" y="-6" width="48" height="48" fill="none" style="" class="djs-outline"></rect></g></g><g class="djs-group" xmlns="http://www.w3.org/2000/svg"><g data-element-id="ExclusiveGateway_0mus4to" transform="matrix(1,0,0,1,1320,273)" style="display: block;" class="djs-element djs-shape"><g class="djs-visual"><polygon points="25,0,50,25,25,50,0,25" stroke="#000000" fill="#ffffff" style="stroke-width: 2;"></polygon><path d="m 16,15 7.42857142857143,9.714285714285715 -7.42857142857143,9.714285714285715 3.428571428571429,0 5.714285714285715,-7.464228571428572 5.714285714285715,7.464228571428572 3.428571428571429,0 -7.42857142857143,-9.714285714285715 7.42857142857143,-9.714285714285715 -3.428571428571429,0 -5.714285714285715,7.464228571428572 -5.714285714285715,-7.464228571428572 -3.428571428571429,0 z" fill="#000000" stroke="#000000" style="stroke-width: 1;"></path></g><rect x="0" y="0" width="50" height="50" fill="none" stroke="#ffffff" style="stroke-opacity: 0; stroke-width: 15;" class="djs-hit"></rect><rect x="-6" y="-6" width="62" height="62" fill="none" style="" class="djs-outline"></rect></g></g><g class="djs-group" xmlns="http://www.w3.org/2000/svg"><g data-element-id="EndEvent_0ddm3hz" transform="matrix(1,0,0,1,1327,24)" style="display: block;" class="djs-element djs-shape bpms_point_highlight_lime"><g class="djs-visual"><circle cx="18" cy="18" r="18" stroke="#000000" fill="#ffffff" style="stroke-width: 4;"></circle></g><rect x="0" y="0" width="36" height="36" fill="none" stroke="#ffffff" style="stroke-opacity: 0; stroke-width: 15;" class="djs-hit"></rect><rect x="-6" y="-6" width="48" height="48" fill="none" style="" class="djs-outline"></rect></g></g><g class="djs-group" xmlns="http://www.w3.org/2000/svg"><g data-element-id="ScriptTask_0etr8gr" class="djs-element djs-shape" transform="matrix(1,0,0,1,456,258)" style="display: block;"><g class="djs-visual"><rect x="0" y="0" width="100" height="80" rx="10" ry="10" stroke="#000000" fill="#ffffff" style="stroke-width: 2;"></rect><text class=" djs-label" style="font-family: Arial, sans-serif; font-size: 12px;"><tspan x="8.7109375" y="43.40234375">Обнулить долг</tspan></text><path d="m 15,20 c 9.966553,-6.27276 -8.000926,-7.91932 2.968968,-14.938 l -8.802728,0 c -10.969894,7.01868 6.997585,8.66524 -2.968967,14.938 z m -7,-12 l 5,0 m -4.5,3 l 4.5,0 m -3,3 l 5,0m -4,3 l 5,0" fill="none" stroke="#000000" style="stroke-width: 1;"></path></g><rect x="0" y="0" width="100" height="80" fill="none" stroke="#ffffff" style="stroke-opacity: 0; stroke-width: 15;" class="djs-hit"></rect><rect x="-6" y="-6" width="112" height="92" fill="none" style="" class="djs-outline"></rect></g></g><g class="djs-group" xmlns="http://www.w3.org/2000/svg"><g data-element-id="ScriptTask_0qxtju0" class="djs-element djs-shape" transform="matrix(1,0,0,1,-229,258)" style="display: block;"><g class="djs-visual"><rect x="0" y="0" width="100" height="80" rx="10" ry="10" stroke="#000000" fill="#ffffff" style="stroke-width: 2;"></rect><text class=" djs-label" style="font-family: Arial, sans-serif; font-size: 12px;"><tspan x="12.9140625" y="36.59765625">Сформируем </tspan><tspan x="41" y="50.20703125">MT </tspan></text><path d="m 15,20 c 9.966553,-6.27276 -8.000926,-7.91932 2.968968,-14.938 l -8.802728,0 c -10.969894,7.01868 6.997585,8.66524 -2.968967,14.938 z m -7,-12 l 5,0 m -4.5,3 l 4.5,0 m -3,3 l 5,0m -4,3 l 5,0" fill="none" stroke="#000000" style="stroke-width: 1;"></path></g><rect x="0" y="0" width="100" height="80" fill="none" stroke="#ffffff" style="stroke-opacity: 0; stroke-width: 15;" class="djs-hit"></rect><rect x="-6" y="-6" width="112" height="92" fill="none" style="" class="djs-outline"></rect></g></g><g class="djs-group" xmlns="http://www.w3.org/2000/svg"><g data-element-id="IntermediateCatchEvent_0cvrbja" transform="matrix(1,0,0,1,1021,280)" style="display: block;" class="djs-element djs-shape"><g class="djs-visual"><circle cx="18" cy="18" r="18" stroke="#000000" fill="#ffffff" style="stroke-width: 1;"></circle><circle cx="18" cy="18" r="15" stroke="#000000" fill="none" style="stroke-width: 1;"></circle><circle cx="18" cy="18" r="11" stroke="#000000" fill="#ffffff" style="stroke-width: 2;"></circle><path d="M 18,18 l 2.25,-7.5 m -2.25,7.5 l 5.25,1.5 " fill="none" stroke="#000000" style="stroke-width: 2; stroke-linecap: square;"></path><path d="M 18,18 m 0,7.5 l -0,2.25 " fill="none" stroke="#000000" transform="matrix(1,0,0,1,0,0)" style="stroke-width: 1; stroke-linecap: square;"></path><path d="M 18,18 m 0,7.5 l -0,2.25 " fill="none" stroke="#000000" transform="matrix(0.866,0.5,-0.5,0.866,11.4115,-6.5885)" style="stroke-width: 1; stroke-linecap: square;"></path><path d="M 18,18 m 0,7.5 l -0,2.25 " fill="none" stroke="#000000" transform="matrix(0.5,0.866,-0.866,0.5,24.5885,-6.5885)" style="stroke-width: 1; stroke-linecap: square;"></path><path d="M 18,18 m 0,7.5 l -0,2.25 " fill="none" stroke="#000000" transform="matrix(0,1,-1,0,36,0)" style="stroke-width: 1; stroke-linecap: square;"></path><path d="M 18,18 m 0,7.5 l -0,2.25 " fill="none" stroke="#000000" transform="matrix(-0.5,0.866,-0.866,-0.5,42.5885,11.4115)" style="stroke-width: 1; stroke-linecap: square;"></path><path d="M 18,18 m 0,7.5 l -0,2.25 " fill="none" stroke="#000000" transform="matrix(-0.866,0.5,-0.5,-0.866,42.5885,24.5885)" style="stroke-width: 1; stroke-linecap: square;"></path><path d="M 18,18 m 0,7.5 l -0,2.25 " fill="none" stroke="#000000" transform="matrix(-1,0,0,-1,36,36)" style="stroke-width: 1; stroke-linecap: square;"></path><path d="M 18,18 m 0,7.5 l -0,2.25 " fill="none" stroke="#000000" transform="matrix(-0.866,-0.5,0.5,-0.866,24.5885,42.5885)" style="stroke-width: 1; stroke-linecap: square;"></path><path d="M 18,18 m 0,7.5 l -0,2.25 " fill="none" stroke="#000000" transform="matrix(-0.5,-0.866,0.866,-0.5,11.4115,42.5885)" style="stroke-width: 1; stroke-linecap: square;"></path><path d="M 18,18 m 0,7.5 l -0,2.25 " fill="none" stroke="#000000" transform="matrix(0,-1,1,0,0,36)" style="stroke-width: 1; stroke-linecap: square;"></path><path d="M 18,18 m 0,7.5 l -0,2.25 " fill="none" stroke="#000000" transform="matrix(0.5,-0.866,0.866,0.5,-6.5885,24.5885)" style="stroke-width: 1; stroke-linecap: square;"></path><path d="M 18,18 m 0,7.5 l -0,2.25 " fill="none" stroke="#000000" transform="matrix(0.866,-0.5,0.5,0.866,-6.5885,11.4115)" style="stroke-width: 1; stroke-linecap: square;"></path></g><rect x="0" y="0" width="36" height="36" fill="none" stroke="#ffffff" style="stroke-opacity: 0; stroke-width: 15;" class="djs-hit"></rect><rect x="-6" y="-6" width="48" height="48" fill="none" style="" class="djs-outline"></rect></g></g><g class="djs-group" xmlns="http://www.w3.org/2000/svg"><g data-element-id="SubProcess_1mabik6" class="djs-element djs-shape" transform="matrix(1,0,0,1,279,258)" style="display: block;"><g class="djs-visual"><rect x="0" y="0" width="100" height="80" rx="10" ry="10" stroke="#000000" fill="#ffffff" style="stroke-width: 2;"></rect><text class=" djs-label" style="font-family: Arial, sans-serif; font-size: 12px;"><tspan x="12.9140625" y="36.59765625">Сформируем </tspan><tspan x="22.5390625" y="50.20703125">R06 отказ </tspan></text><rect x="0" y="0" width="14" height="14" rx="0" ry="0" stroke="#000000" fill="#ffffff" transform="matrix(1,0,0,1,42.5,60)" style="stroke-width: 1;"></rect><path d="m42.5,60 m 7,2 l 0,10 m -5,-5 l 10,0" fill="none" stroke="#000000" data-marker="sub-process" style="stroke-width: 2;"></path></g><rect x="0" y="0" width="100" height="80" fill="none" stroke="#ffffff" style="stroke-opacity: 0; stroke-width: 15;" class="djs-hit"></rect><rect x="-6" y="-6" width="112" height="92" fill="none" style="" class="djs-outline"></rect></g></g><g class="djs-group" xmlns="http://www.w3.org/2000/svg"><g data-element-id="ExclusiveGateway_01jqka2" transform="matrix(1,0,0,1,-69,273)" style="display: block;" class="djs-element djs-shape"><g class="djs-visual"><polygon points="25,0,50,25,25,50,0,25" stroke="#000000" fill="#ffffff" style="stroke-width: 2;"></polygon><path d="m 16,15 7.42857142857143,9.714285714285715 -7.42857142857143,9.714285714285715 3.428571428571429,0 5.714285714285715,-7.464228571428572 5.714285714285715,7.464228571428572 3.428571428571429,0 -7.42857142857143,-9.714285714285715 7.42857142857143,-9.714285714285715 -3.428571428571429,0 -5.714285714285715,7.464228571428572 -5.714285714285715,-7.464228571428572 -3.428571428571429,0 z" fill="#000000" stroke="#000000" style="stroke-width: 1;"></path></g><rect x="0" y="0" width="50" height="50" fill="none" stroke="#ffffff" style="stroke-opacity: 0; stroke-width: 15;" class="djs-hit"></rect><rect x="-6" y="-6" width="62" height="62" fill="none" style="" class="djs-outline"></rect></g></g><g class="djs-group" xmlns="http://www.w3.org/2000/svg"><g data-element-id="ExclusiveGateway_01jqka2_label" class="djs-element djs-shape" transform="matrix(1,0,0,1,-89,323)" style="display: none;"><g class="djs-visual"><text class=" djs-label" style="font-family: Arial, sans-serif; font-size: 11px;"><tspan x="45" y="0"></tspan></text></g><rect x="0" y="0" width="90" height="20" fill="none" stroke="#ffffff" style="stroke-opacity: 0; stroke-width: 15;" class="djs-hit"></rect><rect x="-6" y="-6" width="102" height="32" fill="none" style="" class="djs-outline"></rect></g></g><g class="djs-group" xmlns="http://www.w3.org/2000/svg"><g data-element-id="EndEvent_1a1mwfj" transform="matrix(1,0,0,1,-62,80)" style="display: block;" class="djs-element djs-shape bpms_point_highlight_deep_or"><g class="djs-visual"><circle cx="18" cy="18" r="18" stroke="#000000" fill="#ffffff" style="stroke-width: 4;"></circle></g><rect x="0" y="0" width="36" height="36" fill="none" stroke="#ffffff" style="stroke-opacity: 0; stroke-width: 15;" class="djs-hit"></rect><rect x="-6" y="-6" width="48" height="48" fill="none" style="" class="djs-outline"></rect></g></g><g class="djs-group" xmlns="http://www.w3.org/2000/svg"><g data-element-id="EndEvent_1a1mwfj_label" class="djs-element djs-shape" transform="matrix(1,0,0,1,-89,116)" style="display: block;"><g class="djs-visual"><text class=" djs-label" style="font-family: Arial, sans-serif; font-size: 11px;"><tspan x="13.734375" y="12.015625">Ошибка при </tspan><tspan x="6.15625" y="24.03125">формировании </tspan><tspan x="36.8125" y="36.046875">MT </tspan></text></g><rect x="0" y="0" width="90" height="20" fill="none" stroke="#ffffff" style="stroke-opacity: 0; stroke-width: 15;" class="djs-hit"></rect><rect x="-6" y="-6" width="102" height="32" fill="none" style="" class="djs-outline"></rect></g></g><g class="djs-group" xmlns="http://www.w3.org/2000/svg"><g data-element-id="SubProcess_1jrdtww" class="djs-element djs-shape" transform="matrix(1,0,0,1,-422,258)" style="display: block;"><g class="djs-visual"><rect x="0" y="0" width="100" height="80" rx="10" ry="10" stroke="#000000" fill="#ffffff" style="stroke-width: 2;"></rect><text class=" djs-label" style="font-family: Arial, sans-serif; font-size: 12px;"><tspan x="22.5078125" y="29.79296875">Отменить </tspan><tspan x="24.2734375" y="43.40234375">проводки </tspan><tspan x="17.09375" y="57.01171875">требования </tspan></text><rect x="0" y="0" width="14" height="14" rx="0" ry="0" stroke="#000000" fill="#ffffff" transform="matrix(1,0,0,1,42.5,60)" style="stroke-width: 1;"></rect><path d="m42.5,60 m 7,2 l 0,10 m -5,-5 l 10,0" fill="none" stroke="#000000" data-marker="sub-process" style="stroke-width: 2;"></path></g><rect x="0" y="0" width="100" height="80" fill="none" stroke="#ffffff" style="stroke-opacity: 0; stroke-width: 15;" class="djs-hit"></rect><rect x="-6" y="-6" width="112" height="92" fill="none" style="" class="djs-outline"></rect></g></g><g class="djs-group" xmlns="http://www.w3.org/2000/svg"><g data-element-id="ExclusiveGateway_15qmbrz" transform="matrix(1,0,0,1,173,273)" style="display: block;" class="djs-element djs-shape"><g class="djs-visual"><polygon points="25,0,50,25,25,50,0,25" stroke="#000000" fill="#ffffff" style="stroke-width: 2;"></polygon><path d="m 16,15 7.42857142857143,9.714285714285715 -7.42857142857143,9.714285714285715 3.428571428571429,0 5.714285714285715,-7.464228571428572 5.714285714285715,7.464228571428572 3.428571428571429,0 -7.42857142857143,-9.714285714285715 7.42857142857143,-9.714285714285715 -3.428571428571429,0 -5.714285714285715,7.464228571428572 -5.714285714285715,-7.464228571428572 -3.428571428571429,0 z" fill="#000000" stroke="#000000" style="stroke-width: 1;"></path></g><rect x="0" y="0" width="50" height="50" fill="none" stroke="#ffffff" style="stroke-opacity: 0; stroke-width: 15;" class="djs-hit"></rect><rect x="-6" y="-6" width="62" height="62" fill="none" style="" class="djs-outline"></rect></g></g><g class="djs-group" xmlns="http://www.w3.org/2000/svg"><g data-element-id="ExclusiveGateway_15qmbrz_label" class="djs-element djs-shape" transform="matrix(1,0,0,1,153,323)" style="display: none;"><g class="djs-visual"><text class=" djs-label" style="font-family: Arial, sans-serif; font-size: 11px;"><tspan x="45" y="0"></tspan></text></g><rect x="0" y="0" width="90" height="20" fill="none" stroke="#ffffff" style="stroke-opacity: 0; stroke-width: 15;" class="djs-hit"></rect><rect x="-6" y="-6" width="102" height="32" fill="none" style="" class="djs-outline"></rect></g></g><g class="djs-group" xmlns="http://www.w3.org/2000/svg"><g data-element-id="ScriptTask_05q9f6v" class="djs-element djs-shape" transform="matrix(1,0,0,1,23,258)" style="display: block;"><g class="djs-visual"><rect x="0" y="0" width="100" height="80" rx="10" ry="10" stroke="#000000" fill="#ffffff" style="stroke-width: 2;"></rect><text class=" djs-label" style="font-family: Arial, sans-serif; font-size: 12px;"><tspan x="20.4375" y="43.40234375">nosend_nk</tspan></text><path d="m 15,20 c 9.966553,-6.27276 -8.000926,-7.91932 2.968968,-14.938 l -8.802728,0 c -10.969894,7.01868 6.997585,8.66524 -2.968967,14.938 z m -7,-12 l 5,0 m -4.5,3 l 4.5,0 m -3,3 l 5,0m -4,3 l 5,0" fill="none" stroke="#000000" style="stroke-width: 1;"></path></g><rect x="0" y="0" width="100" height="80" fill="none" stroke="#ffffff" style="stroke-opacity: 0; stroke-width: 15;" class="djs-hit"></rect><rect x="-6" y="-6" width="112" height="92" fill="none" style="" class="djs-outline"></rect></g></g><g class="djs-group" xmlns="http://www.w3.org/2000/svg"><g data-element-id="SequenceFlow_071zzmi" class="djs-element djs-connection" style="display: block;"><g class="djs-visual"><path d="m  -663,298L-582,298 " fill="none" stroke="#000000" style="stroke-width: 2; stroke-linejoin: round; marker-end: url(&quot;#markerSk0wms0ffmz&quot;);"></path></g><polyline points="-663,298 -582,298 " fill="none" stroke="#ffffff" style="stroke-opacity: 0; stroke-width: 15;" class="djs-hit"></polyline><rect x="-669" y="292" width="93" height="12" fill="none" style="" class="djs-outline"></rect></g></g><g class="djs-group" xmlns="http://www.w3.org/2000/svg"><g data-element-id="SequenceFlow_071zzmi_label" class="djs-element djs-shape" transform="matrix(1,0,0,1,400,288)" style="display: none;"><g class="djs-visual"><text class=" djs-label" style="font-family: Arial, sans-serif; font-size: 11px;"><tspan x="45" y="0"></tspan></text></g><rect x="0" y="0" width="90" height="20" fill="none" stroke="#ffffff" style="stroke-opacity: 0; stroke-width: 15;" class="djs-hit"></rect><rect x="-6" y="-6" width="102" height="32" fill="none" style="" class="djs-outline"></rect></g></g><g class="djs-group" xmlns="http://www.w3.org/2000/svg"><g data-element-id="SequenceFlow_117gm4s" class="djs-element djs-connection" style="display: block;"><g class="djs-visual"><path d="m  690,298L796,298 " fill="none" stroke="#000000" style="stroke-width: 2; stroke-linejoin: round; marker-end: url(&quot;#markerSk0wms0ffmz&quot;);"></path></g><polyline points="690,298 796,298 " fill="none" stroke="#ffffff" style="stroke-opacity: 0; stroke-width: 15;" class="djs-hit"></polyline><rect x="684" y="292" width="118" height="12" fill="none" style="" class="djs-outline"></rect></g></g><g class="djs-group" xmlns="http://www.w3.org/2000/svg"><g data-element-id="SequenceFlow_117gm4s_label" class="djs-element djs-shape" transform="matrix(1,0,0,1,669,288)" style="display: none;"><g class="djs-visual"><text class=" djs-label" style="font-family: Arial, sans-serif; font-size: 11px;"><tspan x="45" y="0"></tspan></text></g><rect x="0" y="0" width="90" height="20" fill="none" stroke="#ffffff" style="stroke-opacity: 0; stroke-width: 15;" class="djs-hit"></rect><rect x="-6" y="-6" width="102" height="32" fill="none" style="" class="djs-outline"></rect></g></g><g class="djs-group" xmlns="http://www.w3.org/2000/svg"><g data-element-id="SequenceFlow_1dte18k" class="djs-element djs-connection" style="display: block;"><g class="djs-visual"><path d="m  665,273L665,131 " fill="none" stroke="#000000" style="stroke-width: 2; stroke-linejoin: round; marker-end: url(&quot;#markerSk0wms0ffmz&quot;);"></path></g><polyline points="665,273 665,131 " fill="none" stroke="#ffffff" style="stroke-opacity: 0; stroke-width: 15;" class="djs-hit"></polyline><rect x="659" y="125" width="12" height="154" fill="none" style="" class="djs-outline"></rect></g></g><g class="djs-group" xmlns="http://www.w3.org/2000/svg"><g data-element-id="SequenceFlow_1dte18k_label" class="djs-element djs-shape" transform="matrix(1,0,0,1,620,192)" style="display: none;"><g class="djs-visual"><text class=" djs-label" style="font-family: Arial, sans-serif; font-size: 11px;"><tspan x="45" y="0"></tspan></text></g><rect x="0" y="0" width="90" height="20" fill="none" stroke="#ffffff" style="stroke-opacity: 0; stroke-width: 15;" class="djs-hit"></rect><rect x="-6" y="-6" width="102" height="32" fill="none" style="" class="djs-outline"></rect></g></g><g class="djs-group" xmlns="http://www.w3.org/2000/svg"><g data-element-id="SequenceFlow_01vzw3p_label" class="djs-element djs-shape" transform="matrix(1,0,0,1,850,288)" style="display: none;"><g class="djs-visual"><text class=" djs-label" style="font-family: Arial, sans-serif; font-size: 11px;"><tspan x="45" y="0"></tspan></text></g><rect x="0" y="0" width="90" height="20" fill="none" stroke="#ffffff" style="stroke-opacity: 0; stroke-width: 15;" class="djs-hit"></rect><rect x="-6" y="-6" width="102" height="32" fill="none" style="" class="djs-outline"></rect></g></g><g class="djs-group" xmlns="http://www.w3.org/2000/svg"><g data-element-id="SequenceFlow_1g6olsv" class="djs-element djs-connection" style="display: block;"><g class="djs-visual"><path d="m  -482,298L-422,298 " fill="none" stroke="#000000" style="stroke-width: 2; stroke-linejoin: round; marker-end: url(&quot;#markerSk0wms0ffmz&quot;);"></path></g><polyline points="-482,298 -422,298 " fill="none" stroke="#ffffff" style="stroke-opacity: 0; stroke-width: 15;" class="djs-hit"></polyline><rect x="-488" y="292" width="72" height="12" fill="none" style="" class="djs-outline"></rect></g></g><g class="djs-group" xmlns="http://www.w3.org/2000/svg"><g data-element-id="SequenceFlow_1g6olsv_label" class="djs-element djs-shape" transform="matrix(1,0,0,1,465,288)" style="display: none;"><g class="djs-visual"><text class=" djs-label" style="font-family: Arial, sans-serif; font-size: 11px;"><tspan x="45" y="0"></tspan></text></g><rect x="0" y="0" width="90" height="20" fill="none" stroke="#ffffff" style="stroke-opacity: 0; stroke-width: 15;" class="djs-hit"></rect><rect x="-6" y="-6" width="102" height="32" fill="none" style="" class="djs-outline"></rect></g></g><g class="djs-group" xmlns="http://www.w3.org/2000/svg"><g data-element-id="SequenceFlow_1p85a1z" class="djs-element djs-connection" style="display: block;"><g class="djs-visual"><path d="m  1370,298L1499,298 " fill="none" stroke="#000000" style="stroke-width: 2; stroke-linejoin: round; marker-end: url(&quot;#markerSk0wms0ffmz&quot;);"></path></g><polyline points="1370,298 1499,298 " fill="none" stroke="#ffffff" style="stroke-opacity: 0; stroke-width: 15;" class="djs-hit"></polyline><rect x="1364" y="292" width="141" height="12" fill="none" style="" class="djs-outline"></rect></g></g><g class="djs-group" xmlns="http://www.w3.org/2000/svg"><g data-element-id="SequenceFlow_1p85a1z_label" class="djs-element djs-shape" transform="matrix(1,0,0,1,1124,288)" style="display: none;"><g class="djs-visual"><text class=" djs-label" style="font-family: Arial, sans-serif; font-size: 11px;"><tspan x="45" y="0"></tspan></text></g><rect x="0" y="0" width="90" height="20" fill="none" stroke="#ffffff" style="stroke-opacity: 0; stroke-width: 15;" class="djs-hit"></rect><rect x="-6" y="-6" width="102" height="32" fill="none" style="" class="djs-outline"></rect></g></g><g class="djs-group" xmlns="http://www.w3.org/2000/svg"><g data-element-id="SequenceFlow_0s2hcqs" class="djs-element djs-connection" style="display: block;"><g class="djs-visual"><path d="m  1345,273L1345,60 " fill="none" stroke="#000000" style="stroke-width: 2; stroke-linejoin: round; marker-end: url(&quot;#markerSk0wms0ffmz&quot;);"></path></g><polyline points="1345,273 1345,60 " fill="none" stroke="#ffffff" style="stroke-opacity: 0; stroke-width: 15;" class="djs-hit"></polyline><rect x="1339" y="54" width="12" height="225" fill="none" style="" class="djs-outline"></rect></g></g><g class="djs-group" xmlns="http://www.w3.org/2000/svg"><g data-element-id="SequenceFlow_0s2hcqs_label" class="djs-element djs-shape" transform="matrix(1,0,0,1,1021,201)" style="display: none;"><g class="djs-visual"><text class=" djs-label" style="font-family: Arial, sans-serif; font-size: 11px;"><tspan x="45" y="0"></tspan></text></g><rect x="0" y="0" width="90" height="20" fill="none" stroke="#ffffff" style="stroke-opacity: 0; stroke-width: 15;" class="djs-hit"></rect><rect x="-6" y="-6" width="102" height="32" fill="none" style="" class="djs-outline"></rect></g></g><g class="djs-group" xmlns="http://www.w3.org/2000/svg"><g data-element-id="SequenceFlow_0su74tt_label" class="djs-element djs-shape" transform="matrix(1,0,0,1,844,288)" style="display: none;"><g class="djs-visual"><text class=" djs-label" style="font-family: Arial, sans-serif; font-size: 11px;"><tspan x="45" y="0"></tspan></text></g><rect x="0" y="0" width="90" height="20" fill="none" stroke="#ffffff" style="stroke-opacity: 0; stroke-width: 15;" class="djs-hit"></rect><rect x="-6" y="-6" width="102" height="32" fill="none" style="" class="djs-outline"></rect></g></g><g class="djs-group" xmlns="http://www.w3.org/2000/svg"><g data-element-id="SequenceFlow_13khkpf" class="djs-element djs-connection" style="display: block;"><g class="djs-visual"><path d="m  556,298L640,298 " fill="none" stroke="#000000" style="stroke-width: 2; stroke-linejoin: round; marker-end: url(&quot;#markerSk0wms0ffmz&quot;);"></path></g><polyline points="556,298 640,298 " fill="none" stroke="#ffffff" style="stroke-opacity: 0; stroke-width: 15;" class="djs-hit"></polyline><rect x="550" y="292" width="96" height="12" fill="none" style="" class="djs-outline"></rect></g></g><g class="djs-group" xmlns="http://www.w3.org/2000/svg"><g data-element-id="SequenceFlow_13khkpf_label" class="djs-element djs-shape" transform="matrix(1,0,0,1,553,288)" style="display: none;"><g class="djs-visual"><text class=" djs-label" style="font-family: Arial, sans-serif; font-size: 11px;"><tspan x="45" y="0"></tspan></text></g><rect x="0" y="0" width="90" height="20" fill="none" stroke="#ffffff" style="stroke-opacity: 0; stroke-width: 15;" class="djs-hit"></rect><rect x="-6" y="-6" width="102" height="32" fill="none" style="" class="djs-outline"></rect></g></g><g class="djs-group" xmlns="http://www.w3.org/2000/svg"><g data-element-id="SequenceFlow_1e8uh0w" class="djs-element djs-connection" style="display: block;"><g class="djs-visual"><path d="m  -129,298L-69,298 " fill="none" stroke="#000000" style="stroke-width: 2; stroke-linejoin: round; marker-end: url(&quot;#markerSk0wms0ffmz&quot;);"></path></g><polyline points="-129,298 -69,298 " fill="none" stroke="#ffffff" style="stroke-opacity: 0; stroke-width: 15;" class="djs-hit"></polyline><rect x="-135" y="292" width="72" height="12" fill="none" style="" class="djs-outline"></rect></g></g><g class="djs-group" xmlns="http://www.w3.org/2000/svg"><g data-element-id="SequenceFlow_1e8uh0w_label" class="djs-element djs-shape" transform="matrix(1,0,0,1,359,288)" style="display: none;"><g class="djs-visual"><text class=" djs-label" style="font-family: Arial, sans-serif; font-size: 11px;"><tspan x="45" y="0"></tspan></text></g><rect x="0" y="0" width="90" height="20" fill="none" stroke="#ffffff" style="stroke-opacity: 0; stroke-width: 15;" class="djs-hit"></rect><rect x="-6" y="-6" width="102" height="32" fill="none" style="" class="djs-outline"></rect></g></g><g class="djs-group" xmlns="http://www.w3.org/2000/svg"><g data-element-id="SequenceFlow_0uc1e60" class="djs-element djs-connection" style="display: block;"><g class="djs-visual"><path d="m  379,298L456,298 " fill="none" stroke="#000000" style="stroke-width: 2; stroke-linejoin: round; marker-end: url(&quot;#markerSk0wms0ffmz&quot;);"></path></g><polyline points="379,298 456,298 " fill="none" stroke="#ffffff" style="stroke-opacity: 0; stroke-width: 15;" class="djs-hit"></polyline><rect x="373" y="292" width="89" height="12" fill="none" style="" class="djs-outline"></rect></g></g><g class="djs-group" xmlns="http://www.w3.org/2000/svg"><g data-element-id="SequenceFlow_0uc1e60_label" class="djs-element djs-shape" transform="matrix(1,0,0,1,373,288)" style="display: none;"><g class="djs-visual"><text class=" djs-label" style="font-family: Arial, sans-serif; font-size: 11px;"><tspan x="45" y="0"></tspan></text></g><rect x="0" y="0" width="90" height="20" fill="none" stroke="#ffffff" style="stroke-opacity: 0; stroke-width: 15;" class="djs-hit"></rect><rect x="-6" y="-6" width="102" height="32" fill="none" style="" class="djs-outline"></rect></g></g><g class="djs-group" xmlns="http://www.w3.org/2000/svg"><g data-element-id="SequenceFlow_0ihz40k" class="djs-element djs-connection" style="display: block;"><g class="djs-visual"><path d="m  -19,298L23,298 " fill="none" stroke="#000000" style="stroke-width: 2; stroke-linejoin: round; marker-end: url(&quot;#markerSk0wms0ffmz&quot;);"></path></g><polyline points="-19,298 23,298 " fill="none" stroke="#ffffff" style="stroke-opacity: 0; stroke-width: 15;" class="djs-hit"></polyline><rect x="-25" y="292" width="54" height="12" fill="none" style="" class="djs-outline"></rect></g></g><g class="djs-group" xmlns="http://www.w3.org/2000/svg"><g data-element-id="SequenceFlow_0ihz40k_label" class="djs-element djs-shape" transform="matrix(1,0,0,1,-28,288)" style="display: none;"><g class="djs-visual"><text class=" djs-label" style="font-family: Arial, sans-serif; font-size: 11px;"><tspan x="45" y="0"></tspan></text></g><rect x="0" y="0" width="90" height="20" fill="none" stroke="#ffffff" style="stroke-opacity: 0; stroke-width: 15;" class="djs-hit"></rect><rect x="-6" y="-6" width="102" height="32" fill="none" style="" class="djs-outline"></rect></g></g><g class="djs-group" xmlns="http://www.w3.org/2000/svg"><g data-element-id="SequenceFlow_16u0l46" class="djs-element djs-connection" style="display: block;"><g class="djs-visual"><path d="m  -44,273L-44,116 " fill="none" stroke="#000000" style="stroke-width: 2; stroke-linejoin: round; marker-end: url(&quot;#markerSk0wms0ffmz&quot;);"></path></g><polyline points="-44,273 -44,116 " fill="none" stroke="#ffffff" style="stroke-opacity: 0; stroke-width: 15;" class="djs-hit"></polyline><rect x="-50" y="110" width="12" height="169" fill="none" style="" class="djs-outline"></rect></g></g><g class="djs-group" xmlns="http://www.w3.org/2000/svg"><g data-element-id="SequenceFlow_16u0l46_label" class="djs-element djs-shape" transform="matrix(1,0,0,1,-89,185)" style="display: none;"><g class="djs-visual"><text class=" djs-label" style="font-family: Arial, sans-serif; font-size: 11px;"><tspan x="45" y="0"></tspan></text></g><rect x="0" y="0" width="90" height="20" fill="none" stroke="#ffffff" style="stroke-opacity: 0; stroke-width: 15;" class="djs-hit"></rect><rect x="-6" y="-6" width="102" height="32" fill="none" style="" class="djs-outline"></rect></g></g><g class="djs-group" xmlns="http://www.w3.org/2000/svg"><g data-element-id="SequenceFlow_0hipmkc" class="djs-element djs-connection" style="display: block;"><g class="djs-visual"><path d="m  -322,298L-229,298 " fill="none" stroke="#000000" style="stroke-width: 2; stroke-linejoin: round; marker-end: url(&quot;#markerSk0wms0ffmz&quot;);"></path></g><polyline points="-322,298 -229,298 " fill="none" stroke="#ffffff" style="stroke-opacity: 0; stroke-width: 15;" class="djs-hit"></polyline><rect x="-328" y="292" width="105" height="12" fill="none" style="" class="djs-outline"></rect></g></g><g class="djs-group" xmlns="http://www.w3.org/2000/svg"><g data-element-id="SequenceFlow_0hipmkc_label" class="djs-element djs-shape" transform="matrix(1,0,0,1,-320,288)" style="display: none;"><g class="djs-visual"><text class=" djs-label" style="font-family: Arial, sans-serif; font-size: 11px;"><tspan x="45" y="0"></tspan></text></g><rect x="0" y="0" width="90" height="20" fill="none" stroke="#ffffff" style="stroke-opacity: 0; stroke-width: 15;" class="djs-hit"></rect><rect x="-6" y="-6" width="102" height="32" fill="none" style="" class="djs-outline"></rect></g></g><g class="djs-group" xmlns="http://www.w3.org/2000/svg"><g data-element-id="SequenceFlow_174o8kb" class="djs-element djs-connection" style="display: block;"><g class="djs-visual"><path d="m  123,298L173,298 " fill="none" stroke="#000000" style="stroke-width: 2; stroke-linejoin: round; marker-end: url(&quot;#markerSk0wms0ffmz&quot;);"></path></g><polyline points="123,298 173,298 " fill="none" stroke="#ffffff" style="stroke-opacity: 0; stroke-width: 15;" class="djs-hit"></polyline><rect x="117" y="292" width="62" height="12" fill="none" style="" class="djs-outline"></rect></g></g><g class="djs-group" xmlns="http://www.w3.org/2000/svg"><g data-element-id="SequenceFlow_174o8kb_label" class="djs-element djs-shape" transform="matrix(1,0,0,1,156,288)" style="display: none;"><g class="djs-visual"><text class=" djs-label" style="font-family: Arial, sans-serif; font-size: 11px;"><tspan x="45" y="0"></tspan></text></g><rect x="0" y="0" width="90" height="20" fill="none" stroke="#ffffff" style="stroke-opacity: 0; stroke-width: 15;" class="djs-hit"></rect><rect x="-6" y="-6" width="102" height="32" fill="none" style="" class="djs-outline"></rect></g></g><g class="djs-group" xmlns="http://www.w3.org/2000/svg"><g data-element-id="SequenceFlow_050l73c" class="djs-element djs-connection" style="display: block;"><g class="djs-visual"><path d="m  223,298L279,298 " fill="none" stroke="#000000" style="stroke-width: 2; stroke-linejoin: round; marker-end: url(&quot;#markerSk0wms0ffmz&quot;);"></path></g><polyline points="223,298 279,298 " fill="none" stroke="#ffffff" style="stroke-opacity: 0; stroke-width: 15;" class="djs-hit"></polyline><rect x="217" y="292" width="68" height="12" fill="none" style="" class="djs-outline"></rect></g></g><g class="djs-group" xmlns="http://www.w3.org/2000/svg"><g data-element-id="SequenceFlow_050l73c_label" class="djs-element djs-shape" transform="matrix(1,0,0,1,206,288)" style="display: none;"><g class="djs-visual"><text class=" djs-label" style="font-family: Arial, sans-serif; font-size: 11px;"><tspan x="45" y="0"></tspan></text></g><rect x="0" y="0" width="90" height="20" fill="none" stroke="#ffffff" style="stroke-opacity: 0; stroke-width: 15;" class="djs-hit"></rect><rect x="-6" y="-6" width="102" height="32" fill="none" style="" class="djs-outline"></rect></g></g><g class="djs-group" xmlns="http://www.w3.org/2000/svg"><g data-element-id="SequenceFlow_1bp8l4k" class="djs-element djs-connection" style="display: block;"><g class="djs-visual"><path d="m  198,323L198,413 L506,413 L506,338 " fill="none" stroke="#000000" style="stroke-width: 2; stroke-linejoin: round; marker-end: url(&quot;#markerSk0wms0ffmz&quot;);"></path></g><polyline points="198,323 198,413 506,413 506,338 " fill="none" stroke="#ffffff" style="stroke-opacity: 0; stroke-width: 15;" class="djs-hit"></polyline><rect x="192" y="317" width="320" height="102" fill="none" style="" class="djs-outline"></rect></g></g><g class="djs-group" xmlns="http://www.w3.org/2000/svg"><g data-element-id="SequenceFlow_1bp8l4k_label" class="djs-element djs-shape" transform="matrix(1,0,0,1,295,288)" style="display: none;"><g class="djs-visual"><text class=" djs-label" style="font-family: Arial, sans-serif; font-size: 11px;"><tspan x="45" y="0"></tspan></text></g><rect x="0" y="0" width="90" height="20" fill="none" stroke="#ffffff" style="stroke-opacity: 0; stroke-width: 15;" class="djs-hit"></rect><rect x="-6" y="-6" width="102" height="32" fill="none" style="" class="djs-outline"></rect></g></g><g class="djs-group" xmlns="http://www.w3.org/2000/svg"><g data-element-id="EndEvent_1wiv77x_label" class="djs-element djs-shape" transform="matrix(1,0,0,1,1472,316)" style="display: block;"><g class="djs-visual"><text class=" djs-label" style="font-family: Arial, sans-serif; font-size: 11px;"><tspan x="22.0234375" y="12.015625">Успешно </tspan><tspan x="12.984375" y="24.03125">отозвана ПТ </tspan></text></g><rect x="0" y="0" width="90" height="20" fill="none" stroke="#ffffff" style="stroke-opacity: 0; stroke-width: 15;" class="djs-hit"></rect><rect x="-6" y="-6" width="102" height="32" fill="none" style="" class="djs-outline"></rect></g></g><g class="djs-group" xmlns="http://www.w3.org/2000/svg"><g data-element-id="ExclusiveGateway_0mus4to_label" class="djs-element djs-shape" transform="matrix(1,0,0,1,1300,323)" style="display: none;"><g class="djs-visual"><text class=" djs-label" style="font-family: Arial, sans-serif; font-size: 11px;"><tspan x="45" y="0"></tspan></text></g><rect x="0" y="0" width="90" height="20" fill="none" stroke="#ffffff" style="stroke-opacity: 0; stroke-width: 15;" class="djs-hit"></rect><rect x="-6" y="-6" width="102" height="32" fill="none" style="" class="djs-outline"></rect></g></g><g class="djs-group" xmlns="http://www.w3.org/2000/svg"><g data-element-id="EndEvent_0ddm3hz_label" class="djs-element djs-shape" transform="matrix(1,0,0,1,1300,60)" style="display: block;"><g class="djs-visual"><text class=" djs-label" style="font-family: Arial, sans-serif; font-size: 11px;"><tspan x="2.3515625" y="12.015625">Уведомление не </tspan><tspan x="15.140625" y="24.03125">отправлено </tspan></text></g><rect x="0" y="0" width="90" height="20" fill="none" stroke="#ffffff" style="stroke-opacity: 0; stroke-width: 15;" class="djs-hit"></rect><rect x="-6" y="-6" width="102" height="32" fill="none" style="" class="djs-outline"></rect></g></g><g class="djs-group" xmlns="http://www.w3.org/2000/svg"><g data-element-id="SubProcess_1xezb7l" class="djs-element djs-shape" transform="matrix(1,0,0,1,1129,258)" style="display: block;"><g class="djs-visual"><rect x="0" y="0" width="100" height="80" rx="10" ry="10" stroke="#000000" fill="#ffffff" style="stroke-width: 2;"></rect><text class=" djs-label" style="font-family: Arial, sans-serif; font-size: 12px;"><tspan x="18.0234375" y="22.98828125">Установить </tspan><tspan x="24" y="36.59765625">лимит по </tspan><tspan x="30.65625" y="50.20703125">счетам </tspan><tspan x="17.09375" y="63.81640625">требования </tspan></text><rect x="0" y="0" width="14" height="14" rx="0" ry="0" stroke="#000000" fill="#ffffff" transform="matrix(1,0,0,1,42.5,60)" style="stroke-width: 1;"></rect><path d="m42.5,60 m 7,2 l 0,10 m -5,-5 l 10,0" fill="none" stroke="#000000" data-marker="sub-process" style="stroke-width: 2;"></path></g><rect x="0" y="0" width="100" height="80" fill="none" stroke="#ffffff" style="stroke-opacity: 0; stroke-width: 15;" class="djs-hit"></rect><rect x="-6" y="-6" width="112" height="92" fill="none" style="" class="djs-outline"></rect></g></g><g class="djs-group" xmlns="http://www.w3.org/2000/svg"><g data-element-id="SequenceFlow_0su74tt" class="djs-element djs-connection" style="display: block;"><g class="djs-visual"><path d="m  1229,298L1320,298 " fill="none" stroke="#000000" style="stroke-width: 2; stroke-linejoin: round; marker-end: url(&quot;#markerSk0wms0ffmz&quot;);"></path></g><polyline points="1229,298 1320,298 " fill="none" stroke="#ffffff" style="stroke-opacity: 0; stroke-width: 15;" class="djs-hit"></polyline><rect x="1223" y="292" width="103" height="12" fill="none" style="" class="djs-outline"></rect></g></g><g class="djs-group" xmlns="http://www.w3.org/2000/svg"><g data-element-id="SequenceFlow_01vzw3p" class="djs-element djs-connection" style="display: block;"><g class="djs-visual"><path d="m  1057,298L1129,298 " fill="none" stroke="#000000" style="stroke-width: 2; stroke-linejoin: round; marker-end: url(&quot;#markerSk0wms0ffmz&quot;);"></path></g><polyline points="1057,298 1129,298 " fill="none" stroke="#ffffff" style="stroke-opacity: 0; stroke-width: 15;" class="djs-hit"></polyline><rect x="1051" y="292" width="84" height="12" fill="none" style="" class="djs-outline"></rect></g></g><g class="djs-group" xmlns="http://www.w3.org/2000/svg"><g data-element-id="IntermediateCatchEvent_0cvrbja_label" class="djs-element djs-shape" transform="matrix(1,0,0,1,994,316)" style="display: block;"><g class="djs-visual"><text class=" djs-label" style="font-family: Arial, sans-serif; font-size: 11px;"><tspan x="10.734375" y="12.015625">Запланируем </tspan><tspan x="28.65625" y="24.03125">лимит </tspan></text></g><rect x="0" y="0" width="90" height="20" fill="none" stroke="#ffffff" style="stroke-opacity: 0; stroke-width: 15;" class="djs-hit"></rect><rect x="-6" y="-6" width="102" height="32" fill="none" style="" class="djs-outline"></rect></g></g><g class="djs-group" xmlns="http://www.w3.org/2000/svg"><g data-element-id="SequenceFlow_0h91ukd" class="djs-element djs-connection" style="display: block;"><g class="djs-visual"><path d="m  896,298L1021,298 " fill="none" stroke="#000000" style="stroke-width: 2; stroke-linejoin: round; marker-end: url(&quot;#markerSk0wms0ffmz&quot;);"></path></g><polyline points="896,298 1021,298 " fill="none" stroke="#ffffff" style="stroke-opacity: 0; stroke-width: 15;" class="djs-hit"></polyline><rect x="890" y="292" width="137" height="12" fill="none" style="" class="djs-outline"></rect></g></g><g class="djs-group" xmlns="http://www.w3.org/2000/svg"><g data-element-id="SequenceFlow_0h91ukd_label" class="djs-element djs-shape" transform="matrix(1,0,0,1,913.5,288)" style="display: none;"><g class="djs-visual"><text class=" djs-label" style="font-family: Arial, sans-serif; font-size: 11px;"><tspan x="45" y="0"></tspan></text></g><rect x="0" y="0" width="90" height="20" fill="none" stroke="#ffffff" style="stroke-opacity: 0; stroke-width: 15;" class="djs-hit"></rect><rect x="-6" y="-6" width="102" height="32" fill="none" style="" class="djs-outline"></rect></g></g><g class="djs-group" xmlns="http://www.w3.org/2000/svg"><g data-element-id="SubProcess_0sw50zi" class="djs-element djs-shape selected" transform="matrix(1,0,0,1,796.2208,258)" style="display: block;"><g class="djs-visual"><rect x="0" y="0" width="100" height="80" rx="10" ry="10" stroke="#000000" fill="#ffffff" style="stroke-width: 2;"></rect><text style="font-family: Arial, sans-serif; font-size: 12px;" class=" djs-label"><tspan x="19.8515625" y="29.79296875">Установим </tspan><tspan x="23.84375" y="43.40234375">статус по </tspan><tspan x="31.4375" y="57.01171875">группе </tspan></text><rect x="0" y="0" width="14" height="14" rx="0" ry="0" stroke="#000000" fill="#ffffff" transform="matrix(1,0,0,1,42.5,60)" style="stroke-width: 1;"></rect><path d="m42.5,60 m 7,2 l 0,10 m -5,-5 l 10,0" fill="none" stroke="#000000" data-marker="sub-process" style="stroke-width: 2;"></path></g><rect x="0" y="0" width="100" height="80" fill="none" stroke="#ffffff" style="stroke-opacity: 0; stroke-width: 15;" class="djs-hit"></rect><rect x="-6" y="-6" width="112" height="92" fill="none" style="" class="djs-outline"></rect></g></g></svg>