<?xml version="1.0" encoding="utf-8"?>
<!-- created with bpmn-js / http://bpmn.io -->
<!DOCTYPE svg PUBLIC "-//W3C//DTD SVG 1.1//EN" "http://www.w3.org/Graphics/SVG/1.1/DTD/svg11.dtd">
<svg xmlns="http://www.w3.org/2000/svg" xmlns:xlink="http://www.w3.org/1999/xlink" width="1126" height="231" viewBox="-164 89 1126 231" version="1.1"><defs><marker viewBox="0 0 20 20" markerWidth="10" markerHeight="10" orient="auto" refX="11" refY="10" id="markerSkqe3ush144"><path d="M 1 5 L 11 10 L 1 15 Z" fill="#000000" style="stroke-width: 1; stroke-linecap: round; stroke-dasharray: 10000, 1;"/></marker><marker viewBox="0 0 20 20" markerWidth="20" markerHeight="20" orient="auto" refX="6" refY="6" id="markerSkqe3ush146"><circle cx="6" cy="6" r="3.5" fill="#ffffff" stroke="#000000" style="stroke-width: 1; stroke-linecap: round; stroke-dasharray: 10000, 1;"/></marker><marker viewBox="0 0 20 20" markerWidth="20" markerHeight="20" orient="auto" refX="8.5" refY="5" id="markerSkqe3ush148"><path d="m 1 5 l 0 -3 l 7 3 l -7 3 z" fill="#ffffff" stroke="#000000" style="stroke-width: 1; stroke-linecap: butt; stroke-dasharray: 10000, 1;"/></marker><marker viewBox="0 0 20 20" markerWidth="10" markerHeight="10" orient="auto" refX="1" refY="10" id="markerSkqe3ush14a"><path d="M 11 5 L 1 10 L 11 15" fill="none" stroke="#000000" style="stroke-width: 1.5; stroke-linecap: round; stroke-dasharray: 10000, 1;"/></marker><marker viewBox="0 0 20 20" markerWidth="10" markerHeight="10" orient="auto" refX="12" refY="10" id="markerSkqe3ush14c"><path d="M 1 5 L 11 10 L 1 15" fill="none" stroke="#000000" style="stroke-width: 1.5; stroke-linecap: round; stroke-dasharray: 10000, 1;"/></marker><marker viewBox="0 0 20 20" markerWidth="10" markerHeight="10" orient="auto" refX="-1" refY="10" id="markerSkqe3ush14e"><path d="M 0 10 L 8 6 L 16 10 L 8 14 Z" fill="#ffffff" stroke="#000000" style="stroke-width: 1; stroke-linecap: round; stroke-dasharray: 10000, 1;"/></marker><marker viewBox="0 0 20 20" markerWidth="10" markerHeight="10" orient="auto" refX="-5" refY="10" id="markerSkqe3ush14g"><path d="M 1 4 L 5 16" fill="#000000" stroke="#000000" style="stroke-width: 1; stroke-linecap: round; stroke-dasharray: 10000, 1;"/></marker></defs><g class="djs-group" xmlns="http://www.w3.org/2000/svg"><g data-element-id="StartEvent_e5af8a19-c4d3-4e88-9bee-caec8a1ede67" transform="matrix(1,0,0,1,-158,256)" style="display: block;" class="djs-element djs-shape"><g class="djs-visual"><circle cx="18" cy="18" r="18" stroke="#000000" fill="#ffffff" style="stroke-width: 2;"></circle></g><rect x="0" y="0" width="36" height="36" fill="none" stroke="#ffffff" style="stroke-opacity: 0; stroke-width: 15;" class="djs-hit"></rect><rect x="-6" y="-6" width="48" height="48" fill="none" style="" class="djs-outline"></rect></g></g><g class="djs-group" xmlns="http://www.w3.org/2000/svg"><g data-element-id="StartEvent_e5af8a19-c4d3-4e88-9bee-caec8a1ede67_label" class="djs-element djs-shape" transform="matrix(1,0,0,1,-185,292)" style="display: none;"><g class="djs-visual"><text class=" djs-label" style="font-family: Arial, sans-serif; font-size: 11px;"><tspan x="45" y="0"></tspan></text></g><rect x="0" y="0" width="90" height="20" fill="none" stroke="#ffffff" style="stroke-opacity: 0; stroke-width: 15;" class="djs-hit"></rect><rect x="-6" y="-6" width="102" height="32" fill="none" style="" class="djs-outline"></rect></g></g><g class="djs-group" xmlns="http://www.w3.org/2000/svg"><g data-element-id="EndEvent_0a1719b2-b5d6-4543-84a5-84a143e332c5" transform="matrix(1,0,0,1,893,256)" style="display: block;" class="djs-element djs-shape"><g class="djs-visual"><circle cx="18" cy="18" r="18" stroke="#000000" fill="#ffffff" style="stroke-width: 4;"></circle></g><rect x="0" y="0" width="36" height="36" fill="none" stroke="#ffffff" style="stroke-opacity: 0; stroke-width: 15;" class="djs-hit"></rect><rect x="-6" y="-6" width="48" height="48" fill="none" style="" class="djs-outline"></rect></g></g><g class="djs-group" xmlns="http://www.w3.org/2000/svg"><g data-element-id="EndEvent_0a1719b2-b5d6-4543-84a5-84a143e332c5_label" class="djs-element djs-shape" transform="matrix(1,0,0,1,866,292)" style="display: block;"><g class="djs-visual"><text class=" djs-label" style="font-family: Arial, sans-serif; font-size: 11px;"><tspan x="23.7890625" y="12">Отозван</tspan></text></g><rect x="0" y="0" width="90" height="20" fill="none" stroke="#ffffff" style="stroke-opacity: 0; stroke-width: 15;" class="djs-hit"></rect><rect x="-6" y="-6" width="102" height="32" fill="none" style="" class="djs-outline"></rect></g></g><g class="djs-group" xmlns="http://www.w3.org/2000/svg"><g data-element-id="ScriptTask_6b241faa-fa1f-44b4-81a8-f9dcbbfbdda6" class="djs-element djs-shape" transform="matrix(1,0,0,1,356,234)" style="display: block;"><g class="djs-visual"><rect x="0" y="0" width="100" height="80" rx="10" ry="10" stroke="#000000" fill="#ffffff" style="stroke-width: 2;"></rect><text class=" djs-label" style="font-family: Arial, sans-serif; font-size: 12px;"><tspan x="24.0546875" y="43.5">Отозвать</tspan></text><path d="m 15,20 c 9.966553,-6.27276 -8.000926,-7.91932 2.968968,-14.938 l -8.802728,0 c -10.969894,7.01868 6.997585,8.66524 -2.968967,14.938 z m -7,-12 l 5,0 m -4.5,3 l 4.5,0 m -3,3 l 5,0m -4,3 l 5,0" fill="none" stroke="#000000" style="stroke-width: 1;"></path></g><rect x="0" y="0" width="100" height="80" fill="none" stroke="#ffffff" style="stroke-opacity: 0; stroke-width: 15;" class="djs-hit"></rect><rect x="-6" y="-6" width="112" height="92" fill="none" style="" class="djs-outline"></rect></g></g><g class="djs-group" xmlns="http://www.w3.org/2000/svg"><g data-element-id="ExclusiveGateway_9e3d3d75-bb73-4db1-9162-2d62fe875a79" transform="matrix(1,0,0,1,558,249)" style="display: block;" class="djs-element djs-shape"><g class="djs-visual"><polygon points="25,0,50,25,25,50,0,25" stroke="#000000" fill="#ffffff" style="stroke-width: 2;"></polygon><path d="m 16,15 7.42857142857143,9.714285714285715 -7.42857142857143,9.714285714285715 3.428571428571429,0 5.714285714285715,-7.464228571428572 5.714285714285715,7.464228571428572 3.428571428571429,0 -7.42857142857143,-9.714285714285715 7.42857142857143,-9.714285714285715 -3.428571428571429,0 -5.714285714285715,7.464228571428572 -5.714285714285715,-7.464228571428572 -3.428571428571429,0 z" fill="#000000" stroke="#000000" style="stroke-width: 1;"></path></g><rect x="0" y="0" width="50" height="50" fill="none" stroke="#ffffff" style="stroke-opacity: 0; stroke-width: 15;" class="djs-hit"></rect><rect x="-6" y="-6" width="62" height="62" fill="none" style="" class="djs-outline"></rect></g></g><g class="djs-group" xmlns="http://www.w3.org/2000/svg"><g data-element-id="ExclusiveGateway_9e3d3d75-bb73-4db1-9162-2d62fe875a79_label" class="djs-element djs-shape" transform="matrix(1,0,0,1,538,299)" style="display: none;"><g class="djs-visual"><text class=" djs-label" style="font-family: Arial, sans-serif; font-size: 11px;"><tspan x="45" y="0"></tspan></text></g><rect x="0" y="0" width="90" height="20" fill="none" stroke="#ffffff" style="stroke-opacity: 0; stroke-width: 15;" class="djs-hit"></rect><rect x="-6" y="-6" width="102" height="32" fill="none" style="" class="djs-outline"></rect></g></g><g class="djs-group" xmlns="http://www.w3.org/2000/svg"><g data-element-id="EndEvent_c34e5595-d061-48df-a665-d131afe5f3c6" transform="matrix(1,0,0,1,565,95)" style="display: block;" class="djs-element djs-shape"><g class="djs-visual"><circle cx="18" cy="18" r="18" stroke="#000000" fill="#ffffff" style="stroke-width: 4;"></circle></g><rect x="0" y="0" width="36" height="36" fill="none" stroke="#ffffff" style="stroke-opacity: 0; stroke-width: 15;" class="djs-hit"></rect><rect x="-6" y="-6" width="48" height="48" fill="none" style="" class="djs-outline"></rect></g></g><g class="djs-group" xmlns="http://www.w3.org/2000/svg"><g data-element-id="EndEvent_c34e5595-d061-48df-a665-d131afe5f3c6_label" class="djs-element djs-shape" transform="matrix(1,0,0,1,538,131)" style="display: block;"><g class="djs-visual"><text class=" djs-label" style="font-family: Arial, sans-serif; font-size: 11px;"><tspan x="13.859375" y="12">Ошибка при </tspan><tspan x="27.1484375" y="24">отзыве </tspan></text></g><rect x="0" y="0" width="90" height="20" fill="none" stroke="#ffffff" style="stroke-opacity: 0; stroke-width: 15;" class="djs-hit"></rect><rect x="-6" y="-6" width="102" height="32" fill="none" style="" class="djs-outline"></rect></g></g><g class="djs-group" xmlns="http://www.w3.org/2000/svg"><g data-element-id="ExclusiveGateway_17384wm" transform="matrix(1,0,0,1,-64,249)" style="display: block;" class="djs-element djs-shape"><g class="djs-visual"><polygon points="25,0,50,25,25,50,0,25" stroke="#000000" fill="#ffffff" style="stroke-width: 2;"></polygon><path d="m 16,15 7.42857142857143,9.714285714285715 -7.42857142857143,9.714285714285715 3.428571428571429,0 5.714285714285715,-7.464228571428572 5.714285714285715,7.464228571428572 3.428571428571429,0 -7.42857142857143,-9.714285714285715 7.42857142857143,-9.714285714285715 -3.428571428571429,0 -5.714285714285715,7.464228571428572 -5.714285714285715,-7.464228571428572 -3.428571428571429,0 z" fill="#000000" stroke="#000000" style="stroke-width: 1;"></path></g><rect x="0" y="0" width="50" height="50" fill="none" stroke="#ffffff" style="stroke-opacity: 0; stroke-width: 15;" class="djs-hit"></rect><rect x="-6" y="-6" width="62" height="62" fill="none" style="" class="djs-outline"></rect></g></g><g class="djs-group" xmlns="http://www.w3.org/2000/svg"><g data-element-id="ExclusiveGateway_17384wm_label" class="djs-element djs-shape" transform="matrix(1,0,0,1,-84,299)" style="display: none;"><g class="djs-visual"><text class=" djs-label" style="font-family: Arial, sans-serif; font-size: 11px;"><tspan x="45" y="0"></tspan></text></g><rect x="0" y="0" width="90" height="20" fill="none" stroke="#ffffff" style="stroke-opacity: 0; stroke-width: 15;" class="djs-hit"></rect><rect x="-6" y="-6" width="102" height="32" fill="none" style="" class="djs-outline"></rect></g></g><g class="djs-group" xmlns="http://www.w3.org/2000/svg"><g data-element-id="UserTask_0r3kax2" class="djs-element djs-shape" transform="matrix(1,0,0,1,39,136)" style="display: block;"><g class="djs-visual"><rect x="0" y="0" width="100" height="80" rx="10" ry="10" stroke="#000000" fill="#ffffff" style="stroke-width: 2;"></rect><text class=" djs-label" style="font-family: Arial, sans-serif; font-size: 12px;"><tspan x="26.6328125" y="29.5">Введите </tspan><tspan x="27.265625" y="43.5">причину </tspan><tspan x="24.9453125" y="57.5">возврата </tspan></text><path d="m 15,12 c 0.909,-0.845 1.594,-2.049 1.594,-3.385 0,-2.554 -1.805,-4.62199999 -4.357,-4.62199999 -2.55199998,0 -4.28799998,2.06799999 -4.28799998,4.62199999 0,1.348 0.974,2.562 1.89599998,3.405 -0.52899998,0.187 -5.669,2.097 -5.794,4.7560005 v 6.718 h 17 v -6.718 c 0,-2.2980005 -5.5279996,-4.5950005 -6.0509996,-4.7760005 zm -8,6 l 0,5.5 m 11,0 l 0,-5" fill="none" stroke="#000000" style="stroke-width: 0.5;"></path><path d="m 15,12 m 2.162,1.009 c 0,2.4470005 -2.158,4.4310005 -4.821,4.4310005 -2.66499998,0 -4.822,-1.981 -4.822,-4.4310005 " fill="none" stroke="#000000" style="stroke-width: 0.5;"></path><path d="m 15,12 m -6.9,-3.80 c 0,0 2.25099998,-2.358 4.27399998,-1.177 2.024,1.181 4.221,1.537 4.124,0.965 -0.098,-0.57 -0.117,-3.79099999 -4.191,-4.13599999 -3.57499998,0.001 -4.20799998,3.36699999 -4.20699998,4.34799999 z" fill="#000000" stroke="#000000" style="stroke-width: 0.5;"></path></g><rect x="0" y="0" width="100" height="80" fill="none" stroke="#ffffff" style="stroke-opacity: 0; stroke-width: 15;" class="djs-hit"></rect><rect x="-6" y="-6" width="112" height="92" fill="none" style="" class="djs-outline"></rect></g></g><g class="djs-group" xmlns="http://www.w3.org/2000/svg"><g data-element-id="SequenceFlow_5a3703e6-8ae8-4cee-bca3-7ee0bd846cfa" class="djs-element djs-connection" style="display: block;"><g class="djs-visual"><path d="m  456,274L558,274 " fill="none" stroke="#000000" style="stroke-width: 2; stroke-linejoin: round; marker-end: url(&quot;#markerSkqe3ush144&quot;);"></path></g><polyline points="456,274 558,274 " fill="none" stroke="#ffffff" style="stroke-opacity: 0; stroke-width: 15;" class="djs-hit"></polyline><rect x="450" y="268" width="114" height="12" fill="none" style="" class="djs-outline"></rect></g></g><g class="djs-group" xmlns="http://www.w3.org/2000/svg"><g data-element-id="SequenceFlow_5a3703e6-8ae8-4cee-bca3-7ee0bd846cfa_label" class="djs-element djs-shape" transform="matrix(1,0,0,1,526,264)" style="display: none;"><g class="djs-visual"><text class=" djs-label" style="font-family: Arial, sans-serif; font-size: 11px;"><tspan x="45" y="0"></tspan></text></g><rect x="0" y="0" width="90" height="20" fill="none" stroke="#ffffff" style="stroke-opacity: 0; stroke-width: 15;" class="djs-hit"></rect><rect x="-6" y="-6" width="102" height="32" fill="none" style="" class="djs-outline"></rect></g></g><g class="djs-group" xmlns="http://www.w3.org/2000/svg"><g data-element-id="SequenceFlow_840926bf-5e3b-4126-b161-3555b371d215" class="djs-element djs-connection" style="display: block;"><g class="djs-visual"><path d="m  608,274L893,274 " fill="none" stroke="#000000" style="stroke-width: 2; stroke-linejoin: round; marker-end: url(&quot;#markerSkqe3ush144&quot;);"></path></g><polyline points="608,274 893,274 " fill="none" stroke="#ffffff" style="stroke-opacity: 0; stroke-width: 15;" class="djs-hit"></polyline><rect x="602" y="268" width="297" height="12" fill="none" style="" class="djs-outline"></rect></g></g><g class="djs-group" xmlns="http://www.w3.org/2000/svg"><g data-element-id="SequenceFlow_840926bf-5e3b-4126-b161-3555b371d215_label" class="djs-element djs-shape" transform="matrix(1,0,0,1,575,264)" style="display: none;"><g class="djs-visual"><text class=" djs-label" style="font-family: Arial, sans-serif; font-size: 11px;"><tspan x="45" y="0"></tspan></text></g><rect x="0" y="0" width="90" height="20" fill="none" stroke="#ffffff" style="stroke-opacity: 0; stroke-width: 15;" class="djs-hit"></rect><rect x="-6" y="-6" width="102" height="32" fill="none" style="" class="djs-outline"></rect></g></g><g class="djs-group" xmlns="http://www.w3.org/2000/svg"><g data-element-id="SequenceFlow_56fb408c-ad20-4e5b-8685-eb32fe710625" class="djs-element djs-connection" style="display: block;"><g class="djs-visual"><path d="m  583,249L583,131 " fill="none" stroke="#000000" style="stroke-width: 2; stroke-linejoin: round; marker-end: url(&quot;#markerSkqe3ush144&quot;);"></path></g><polyline points="583,249 583,131 " fill="none" stroke="#ffffff" style="stroke-opacity: 0; stroke-width: 15;" class="djs-hit"></polyline><rect x="577" y="125" width="12" height="130" fill="none" style="" class="djs-outline"></rect></g></g><g class="djs-group" xmlns="http://www.w3.org/2000/svg"><g data-element-id="SequenceFlow_56fb408c-ad20-4e5b-8685-eb32fe710625_label" class="djs-element djs-shape" transform="matrix(1,0,0,1,538,180)" style="display: none;"><g class="djs-visual"><text class=" djs-label" style="font-family: Arial, sans-serif; font-size: 11px;"><tspan x="45" y="0"></tspan></text></g><rect x="0" y="0" width="90" height="20" fill="none" stroke="#ffffff" style="stroke-opacity: 0; stroke-width: 15;" class="djs-hit"></rect><rect x="-6" y="-6" width="102" height="32" fill="none" style="" class="djs-outline"></rect></g></g><g class="djs-group" xmlns="http://www.w3.org/2000/svg"><g data-element-id="SequenceFlow_1mpyspg" class="djs-element djs-connection" style="display: block;"><g class="djs-visual"><path d="m  -122,274L-64,274 " fill="none" stroke="#000000" style="stroke-width: 2; stroke-linejoin: round; marker-end: url(&quot;#markerSkqe3ush144&quot;);"></path></g><polyline points="-122,274 -64,274 " fill="none" stroke="#ffffff" style="stroke-opacity: 0; stroke-width: 15;" class="djs-hit"></polyline><rect x="-128" y="268" width="70" height="12" fill="none" style="" class="djs-outline"></rect></g></g><g class="djs-group" xmlns="http://www.w3.org/2000/svg"><g data-element-id="SequenceFlow_1mpyspg_label" class="djs-element djs-shape" transform="matrix(1,0,0,1,233,264)" style="display: none;"><g class="djs-visual"><text class=" djs-label" style="font-family: Arial, sans-serif; font-size: 11px;"><tspan x="45" y="0"></tspan></text></g><rect x="0" y="0" width="90" height="20" fill="none" stroke="#ffffff" style="stroke-opacity: 0; stroke-width: 15;" class="djs-hit"></rect><rect x="-6" y="-6" width="102" height="32" fill="none" style="" class="djs-outline"></rect></g></g><g class="djs-group" xmlns="http://www.w3.org/2000/svg"><g data-element-id="SequenceFlow_0v8e406" class="djs-element djs-connection" style="display: block;"><g class="djs-visual"><path d="m  -14,274L356,274 " fill="none" stroke="#000000" style="stroke-width: 2; stroke-linejoin: round; marker-end: url(&quot;#markerSkqe3ush144&quot;);"></path></g><polyline points="-14,274 356,274 " fill="none" stroke="#ffffff" style="stroke-opacity: 0; stroke-width: 15;" class="djs-hit"></polyline><rect x="-20" y="268" width="382" height="12" fill="none" style="" class="djs-outline"></rect></g></g><g class="djs-group" xmlns="http://www.w3.org/2000/svg"><g data-element-id="SequenceFlow_0v8e406_label" class="djs-element djs-shape" transform="matrix(1,0,0,1,172,264)" style="display: none;"><g class="djs-visual"><text class=" djs-label" style="font-family: Arial, sans-serif; font-size: 11px;"><tspan x="45" y="0"></tspan></text></g><rect x="0" y="0" width="90" height="20" fill="none" stroke="#ffffff" style="stroke-opacity: 0; stroke-width: 15;" class="djs-hit"></rect><rect x="-6" y="-6" width="102" height="32" fill="none" style="" class="djs-outline"></rect></g></g><g class="djs-group" xmlns="http://www.w3.org/2000/svg"><g data-element-id="SequenceFlow_0gomrjg" class="djs-element djs-connection" style="display: block;"><g class="djs-visual"><path d="m  -39,249L-39,176 L39,176 " fill="none" stroke="#000000" style="stroke-width: 2; stroke-linejoin: round; marker-end: url(&quot;#markerSkqe3ush144&quot;);"></path></g><polyline points="-39,249 -39,176 39,176 " fill="none" stroke="#ffffff" style="stroke-opacity: 0; stroke-width: 15;" class="djs-hit"></polyline><rect x="-45" y="170" width="90" height="85" fill="none" style="" class="djs-outline"></rect></g></g><g class="djs-group" xmlns="http://www.w3.org/2000/svg"><g data-element-id="SequenceFlow_0gomrjg_label" class="djs-element djs-shape" transform="matrix(1,0,0,1,-84,204)" style="display: none;"><g class="djs-visual"><text class=" djs-label" style="font-family: Arial, sans-serif; font-size: 11px;"><tspan x="45" y="0"></tspan></text></g><rect x="0" y="0" width="90" height="20" fill="none" stroke="#ffffff" style="stroke-opacity: 0; stroke-width: 15;" class="djs-hit"></rect><rect x="-6" y="-6" width="102" height="32" fill="none" style="" class="djs-outline"></rect></g></g><g class="djs-group" xmlns="http://www.w3.org/2000/svg"><g data-element-id="SequenceFlow_0nnx5ot" class="djs-element djs-connection" style="display: block;"><g class="djs-visual"><path d="m  139,176L406,176 L406,234 " fill="none" stroke="#000000" style="stroke-width: 2; stroke-linejoin: round; marker-end: url(&quot;#markerSkqe3ush144&quot;);"></path></g><polyline points="139,176 406,176 406,234 " fill="none" stroke="#ffffff" style="stroke-opacity: 0; stroke-width: 15;" class="djs-hit"></polyline><rect x="133" y="170" width="279" height="70" fill="none" style="" class="djs-outline"></rect></g></g><g class="djs-group" xmlns="http://www.w3.org/2000/svg"><g data-element-id="SequenceFlow_0nnx5ot_label" class="djs-element djs-shape" transform="matrix(1,0,0,1,198,217)" style="display: none;"><g class="djs-visual"><text class=" djs-label" style="font-family: Arial, sans-serif; font-size: 11px;"><tspan x="45" y="0"></tspan></text></g><rect x="0" y="0" width="90" height="20" fill="none" stroke="#ffffff" style="stroke-opacity: 0; stroke-width: 15;" class="djs-hit"></rect><rect x="-6" y="-6" width="102" height="32" fill="none" style="" class="djs-outline"></rect></g></g></svg>