<?xml version="1.0" encoding="utf-8"?>
<!-- created with bpmn-js / http://bpmn.io -->
<!DOCTYPE svg PUBLIC "-//W3C//DTD SVG 1.1//EN" "http://www.w3.org/Graphics/SVG/1.1/DTD/svg11.dtd">
<svg xmlns="http://www.w3.org/2000/svg" xmlns:xlink="http://www.w3.org/1999/xlink" width="962" height="258" viewBox="-132 25 962 258" version="1.1"><defs><marker viewBox="0 0 20 20" markerWidth="10" markerHeight="10" orient="auto" refX="11" refY="10" id="markerSk1fw9a9c4u9"><path d="M 1 5 L 11 10 L 1 15 Z" fill="#000000" style="stroke-width: 1; stroke-linecap: round; stroke-dasharray: 10000, 1;"/></marker><marker viewBox="0 0 20 20" markerWidth="20" markerHeight="20" orient="auto" refX="6" refY="6" id="markerSk1fw9a9c4ub"><circle cx="6" cy="6" r="3.5" fill="#ffffff" stroke="#000000" style="stroke-width: 1; stroke-linecap: round; stroke-dasharray: 10000, 1;"/></marker><marker viewBox="0 0 20 20" markerWidth="20" markerHeight="20" orient="auto" refX="8.5" refY="5" id="markerSk1fw9a9c4ud"><path d="m 1 5 l 0 -3 l 7 3 l -7 3 z" fill="#ffffff" stroke="#000000" style="stroke-width: 1; stroke-linecap: butt; stroke-dasharray: 10000, 1;"/></marker><marker viewBox="0 0 20 20" markerWidth="10" markerHeight="10" orient="auto" refX="1" refY="10" id="markerSk1fw9a9c4uf"><path d="M 11 5 L 1 10 L 11 15" fill="none" stroke="#000000" style="stroke-width: 1.5; stroke-linecap: round; stroke-dasharray: 10000, 1;"/></marker><marker viewBox="0 0 20 20" markerWidth="10" markerHeight="10" orient="auto" refX="12" refY="10" id="markerSk1fw9a9c4uh"><path d="M 1 5 L 11 10 L 1 15" fill="none" stroke="#000000" style="stroke-width: 1.5; stroke-linecap: round; stroke-dasharray: 10000, 1;"/></marker><marker viewBox="0 0 20 20" markerWidth="10" markerHeight="10" orient="auto" refX="-1" refY="10" id="markerSk1fw9a9c4uj"><path d="M 0 10 L 8 6 L 16 10 L 8 14 Z" fill="#ffffff" stroke="#000000" style="stroke-width: 1; stroke-linecap: round; stroke-dasharray: 10000, 1;"/></marker><marker viewBox="0 0 20 20" markerWidth="10" markerHeight="10" orient="auto" refX="-5" refY="10" id="markerSk1fw9a9c4ul"><path d="M 1 4 L 5 16" fill="#000000" stroke="#000000" style="stroke-width: 1; stroke-linecap: round; stroke-dasharray: 10000, 1;"/></marker></defs><g class="djs-group" xmlns="http://www.w3.org/2000/svg"><g data-element-id="StartEvent_051y42d" transform="matrix(1,0,0,1,-126,219)" style="display: block;" class="djs-element djs-shape"><g class="djs-visual"><circle cx="18" cy="18" r="18" stroke="#000000" fill="#ffffff" style="stroke-width: 2;"></circle></g><rect x="0" y="0" width="36" height="36" fill="none" stroke="#ffffff" style="stroke-opacity: 0; stroke-width: 15;" class="djs-hit"></rect><rect x="-6" y="-6" width="48" height="48" fill="none" style="" class="djs-outline"></rect></g></g><g class="djs-group" xmlns="http://www.w3.org/2000/svg"><g data-element-id="StartEvent_051y42d_label" class="djs-element djs-shape" transform="matrix(1,0,0,1,-153,255)" style="display: none;"><g class="djs-visual"><text class=" djs-label" style="font-family: Arial, sans-serif; font-size: 11px;"><tspan x="45" y="0"></tspan></text></g><rect x="0" y="0" width="90" height="20" fill="none" stroke="#ffffff" style="stroke-opacity: 0; stroke-width: 15;" class="djs-hit"></rect><rect x="-6" y="-6" width="102" height="32" fill="none" style="" class="djs-outline"></rect></g></g><g class="djs-group" xmlns="http://www.w3.org/2000/svg"><g data-element-id="UserTask_1qvpfq8" class="djs-element djs-shape" transform="matrix(1,0,0,1,272,197)" style="display: block;"><g class="djs-visual"><rect x="0" y="0" width="100" height="80" rx="10" ry="10" stroke="#000000" fill="#ffffff" style="stroke-width: 2;"></rect><text class=" djs-label" style="font-family: Arial, sans-serif; font-size: 12px;"><tspan x="50" y="40"></tspan></text><path d="m 15,12 c 0.909,-0.845 1.594,-2.049 1.594,-3.385 0,-2.554 -1.805,-4.62199999 -4.357,-4.62199999 -2.55199998,0 -4.28799998,2.06799999 -4.28799998,4.62199999 0,1.348 0.974,2.562 1.89599998,3.405 -0.52899998,0.187 -5.669,2.097 -5.794,4.7560005 v 6.718 h 17 v -6.718 c 0,-2.2980005 -5.5279996,-4.5950005 -6.0509996,-4.7760005 zm -8,6 l 0,5.5 m 11,0 l 0,-5" fill="none" stroke="#000000" style="stroke-width: 0.5;"></path><path d="m 15,12 m 2.162,1.009 c 0,2.4470005 -2.158,4.4310005 -4.821,4.4310005 -2.66499998,0 -4.822,-1.981 -4.822,-4.4310005 " fill="none" stroke="#000000" style="stroke-width: 0.5;"></path><path d="m 15,12 m -6.9,-3.80 c 0,0 2.25099998,-2.358 4.27399998,-1.177 2.024,1.181 4.221,1.537 4.124,0.965 -0.098,-0.57 -0.117,-3.79099999 -4.191,-4.13599999 -3.57499998,0.001 -4.20799998,3.36699999 -4.20699998,4.34799999 z" fill="#000000" stroke="#000000" style="stroke-width: 0.5;"></path></g><rect x="0" y="0" width="100" height="80" fill="none" stroke="#ffffff" style="stroke-opacity: 0; stroke-width: 15;" class="djs-hit"></rect><rect x="-6" y="-6" width="112" height="92" fill="none" style="" class="djs-outline"></rect></g></g><g class="djs-group" xmlns="http://www.w3.org/2000/svg"><g data-element-id="ScriptTask_1iqvt2v" class="djs-element djs-shape" transform="matrix(1,0,0,1,482,197)" style="display: block;"><g class="djs-visual"><rect x="0" y="0" width="100" height="80" rx="10" ry="10" stroke="#000000" fill="#ffffff" style="stroke-width: 2;"></rect><text class=" djs-label" style="font-family: Arial, sans-serif; font-size: 12px;"><tspan x="50" y="40"></tspan></text><path d="m 15,20 c 9.966553,-6.27276 -8.000926,-7.91932 2.968968,-14.938 l -8.802728,0 c -10.969894,7.01868 6.997585,8.66524 -2.968967,14.938 z m -7,-12 l 5,0 m -4.5,3 l 4.5,0 m -3,3 l 5,0m -4,3 l 5,0" fill="none" stroke="#000000" style="stroke-width: 1;"></path></g><rect x="0" y="0" width="100" height="80" fill="none" stroke="#ffffff" style="stroke-opacity: 0; stroke-width: 15;" class="djs-hit"></rect><rect x="-6" y="-6" width="112" height="92" fill="none" style="" class="djs-outline"></rect></g></g><g class="djs-group" xmlns="http://www.w3.org/2000/svg"><g data-element-id="ScriptTask_1yz2kj1" class="djs-element djs-shape" transform="matrix(1,0,0,1,-36,197)" style="display: block;"><g class="djs-visual"><rect x="0" y="0" width="100" height="80" rx="10" ry="10" stroke="#000000" fill="#ffffff" style="stroke-width: 2;"></rect><text class=" djs-label" style="font-family: Arial, sans-serif; font-size: 12px;"><tspan x="24.5546875" y="36.5">Зачитать </tspan><tspan x="21.21875" y="50.5">приоритет </tspan></text><path d="m 15,20 c 9.966553,-6.27276 -8.000926,-7.91932 2.968968,-14.938 l -8.802728,0 c -10.969894,7.01868 6.997585,8.66524 -2.968967,14.938 z m -7,-12 l 5,0 m -4.5,3 l 4.5,0 m -3,3 l 5,0m -4,3 l 5,0" fill="none" stroke="#000000" style="stroke-width: 1;"></path></g><rect x="0" y="0" width="100" height="80" fill="none" stroke="#ffffff" style="stroke-opacity: 0; stroke-width: 15;" class="djs-hit"></rect><rect x="-6" y="-6" width="112" height="92" fill="none" style="" class="djs-outline"></rect></g></g><g class="djs-group" xmlns="http://www.w3.org/2000/svg"><g data-element-id="ExclusiveGateway_0fyr95w" transform="matrix(1,0,0,1,140,212)" style="display: block;" class="djs-element djs-shape"><g class="djs-visual"><polygon points="25,0,50,25,25,50,0,25" stroke="#000000" fill="#ffffff" style="stroke-width: 2;"></polygon><path d="m 16,15 7.42857142857143,9.714285714285715 -7.42857142857143,9.714285714285715 3.428571428571429,0 5.714285714285715,-7.464228571428572 5.714285714285715,7.464228571428572 3.428571428571429,0 -7.42857142857143,-9.714285714285715 7.42857142857143,-9.714285714285715 -3.428571428571429,0 -5.714285714285715,7.464228571428572 -5.714285714285715,-7.464228571428572 -3.428571428571429,0 z" fill="#000000" stroke="#000000" style="stroke-width: 1;"></path></g><rect x="0" y="0" width="50" height="50" fill="none" stroke="#ffffff" style="stroke-opacity: 0; stroke-width: 15;" class="djs-hit"></rect><rect x="-6" y="-6" width="62" height="62" fill="none" style="" class="djs-outline"></rect></g></g><g class="djs-group" xmlns="http://www.w3.org/2000/svg"><g data-element-id="ExclusiveGateway_0fyr95w_label" class="djs-element djs-shape" transform="matrix(1,0,0,1,120,262)" style="display: none;"><g class="djs-visual"><text class=" djs-label" style="font-family: Arial, sans-serif; font-size: 11px;"><tspan x="45" y="0"></tspan></text></g><rect x="0" y="0" width="90" height="20" fill="none" stroke="#ffffff" style="stroke-opacity: 0; stroke-width: 15;" class="djs-hit"></rect><rect x="-6" y="-6" width="102" height="32" fill="none" style="" class="djs-outline"></rect></g></g><g class="djs-group" xmlns="http://www.w3.org/2000/svg"><g data-element-id="EndEvent_0dw0yy6" transform="matrix(1,0,0,1,147,31)" style="display: block;" class="djs-element djs-shape"><g class="djs-visual"><circle cx="18" cy="18" r="18" stroke="#000000" fill="#ffffff" style="stroke-width: 4;"></circle></g><rect x="0" y="0" width="36" height="36" fill="none" stroke="#ffffff" style="stroke-opacity: 0; stroke-width: 15;" class="djs-hit"></rect><rect x="-6" y="-6" width="48" height="48" fill="none" style="" class="djs-outline"></rect></g></g><g class="djs-group" xmlns="http://www.w3.org/2000/svg"><g data-element-id="EndEvent_0dw0yy6_label" class="djs-element djs-shape" transform="matrix(1,0,0,1,120,67)" style="display: none;"><g class="djs-visual"><text class=" djs-label" style="font-family: Arial, sans-serif; font-size: 11px;"><tspan x="45" y="0"></tspan></text></g><rect x="0" y="0" width="90" height="20" fill="none" stroke="#ffffff" style="stroke-opacity: 0; stroke-width: 15;" class="djs-hit"></rect><rect x="-6" y="-6" width="102" height="32" fill="none" style="" class="djs-outline"></rect></g></g><g class="djs-group" xmlns="http://www.w3.org/2000/svg"><g data-element-id="EndEvent_1nr2e7p" transform="matrix(1,0,0,1,788,219)" style="display: block;" class="djs-element djs-shape"><g class="djs-visual"><circle cx="18" cy="18" r="18" stroke="#000000" fill="#ffffff" style="stroke-width: 4;"></circle></g><rect x="0" y="0" width="36" height="36" fill="none" stroke="#ffffff" style="stroke-opacity: 0; stroke-width: 15;" class="djs-hit"></rect><rect x="-6" y="-6" width="48" height="48" fill="none" style="" class="djs-outline"></rect></g></g><g class="djs-group" xmlns="http://www.w3.org/2000/svg"><g data-element-id="ExclusiveGateway_1dkdx30" transform="matrix(1,0,0,1,643,212)" style="display: block;" class="djs-element djs-shape"><g class="djs-visual"><polygon points="25,0,50,25,25,50,0,25" stroke="#000000" fill="#ffffff" style="stroke-width: 2;"></polygon><path d="m 16,15 7.42857142857143,9.714285714285715 -7.42857142857143,9.714285714285715 3.428571428571429,0 5.714285714285715,-7.464228571428572 5.714285714285715,7.464228571428572 3.428571428571429,0 -7.42857142857143,-9.714285714285715 7.42857142857143,-9.714285714285715 -3.428571428571429,0 -5.714285714285715,7.464228571428572 -5.714285714285715,-7.464228571428572 -3.428571428571429,0 z" fill="#000000" stroke="#000000" style="stroke-width: 1;"></path></g><rect x="0" y="0" width="50" height="50" fill="none" stroke="#ffffff" style="stroke-opacity: 0; stroke-width: 15;" class="djs-hit"></rect><rect x="-6" y="-6" width="62" height="62" fill="none" style="" class="djs-outline"></rect></g></g><g class="djs-group" xmlns="http://www.w3.org/2000/svg"><g data-element-id="SequenceFlow_03n0b2f" class="djs-element djs-connection" style="display: block;"><g class="djs-visual"><path d="m  -90,237L-36,237 " fill="none" stroke="#000000" style="stroke-width: 2; stroke-linejoin: round; marker-end: url(&quot;#markerSk1fw9a9c4u9&quot;);"></path></g><polyline points="-90,237 -36,237 " fill="none" stroke="#ffffff" style="stroke-opacity: 0; stroke-width: 15;" class="djs-hit"></polyline><rect x="-96" y="231" width="66" height="12" fill="none" style="" class="djs-outline"></rect></g></g><g class="djs-group" xmlns="http://www.w3.org/2000/svg"><g data-element-id="SequenceFlow_03n0b2f_label" class="djs-element djs-shape" transform="matrix(1,0,0,1,215,227)" style="display: none;"><g class="djs-visual"><text class=" djs-label" style="font-family: Arial, sans-serif; font-size: 11px;"><tspan x="45" y="0"></tspan></text></g><rect x="0" y="0" width="90" height="20" fill="none" stroke="#ffffff" style="stroke-opacity: 0; stroke-width: 15;" class="djs-hit"></rect><rect x="-6" y="-6" width="102" height="32" fill="none" style="" class="djs-outline"></rect></g></g><g class="djs-group" xmlns="http://www.w3.org/2000/svg"><g data-element-id="SequenceFlow_0x06p5d" class="djs-element djs-connection" style="display: block;"><g class="djs-visual"><path d="m  372,237L482,237 " fill="none" stroke="#000000" style="stroke-width: 2; stroke-linejoin: round; marker-end: url(&quot;#markerSk1fw9a9c4u9&quot;);"></path></g><polyline points="372,237 482,237 " fill="none" stroke="#ffffff" style="stroke-opacity: 0; stroke-width: 15;" class="djs-hit"></polyline><rect x="366" y="231" width="122" height="12" fill="none" style="" class="djs-outline"></rect></g></g><g class="djs-group" xmlns="http://www.w3.org/2000/svg"><g data-element-id="SequenceFlow_0x06p5d_label" class="djs-element djs-shape" transform="matrix(1,0,0,1,464,227)" style="display: none;"><g class="djs-visual"><text class=" djs-label" style="font-family: Arial, sans-serif; font-size: 11px;"><tspan x="45" y="0"></tspan></text></g><rect x="0" y="0" width="90" height="20" fill="none" stroke="#ffffff" style="stroke-opacity: 0; stroke-width: 15;" class="djs-hit"></rect><rect x="-6" y="-6" width="102" height="32" fill="none" style="" class="djs-outline"></rect></g></g><g class="djs-group" xmlns="http://www.w3.org/2000/svg"><g data-element-id="SequenceFlow_1gmpem4" class="djs-element djs-connection" style="display: block;"><g class="djs-visual"><path d="m  582,237L643,237 " fill="none" stroke="#000000" style="stroke-width: 2; stroke-linejoin: round; marker-end: url(&quot;#markerSk1fw9a9c4u9&quot;);"></path></g><polyline points="582,237 643,237 " fill="none" stroke="#ffffff" style="stroke-opacity: 0; stroke-width: 15;" class="djs-hit"></polyline><rect x="576" y="231" width="73" height="12" fill="none" style="" class="djs-outline"></rect></g></g><g class="djs-group" xmlns="http://www.w3.org/2000/svg"><g data-element-id="SequenceFlow_1gmpem4_label" class="djs-element djs-shape" transform="matrix(1,0,0,1,514,227)" style="display: none;"><g class="djs-visual"><text class=" djs-label" style="font-family: Arial, sans-serif; font-size: 11px;"><tspan x="45" y="0"></tspan></text></g><rect x="0" y="0" width="90" height="20" fill="none" stroke="#ffffff" style="stroke-opacity: 0; stroke-width: 15;" class="djs-hit"></rect><rect x="-6" y="-6" width="102" height="32" fill="none" style="" class="djs-outline"></rect></g></g><g class="djs-group" xmlns="http://www.w3.org/2000/svg"><g data-element-id="SequenceFlow_0d72chn" class="djs-element djs-connection" style="display: block;"><g class="djs-visual"><path d="m  64,237L140,237 " fill="none" stroke="#000000" style="stroke-width: 2; stroke-linejoin: round; marker-end: url(&quot;#markerSk1fw9a9c4u9&quot;);"></path></g><polyline points="64,237 140,237 " fill="none" stroke="#ffffff" style="stroke-opacity: 0; stroke-width: 15;" class="djs-hit"></polyline><rect x="58" y="231" width="88" height="12" fill="none" style="" class="djs-outline"></rect></g></g><g class="djs-group" xmlns="http://www.w3.org/2000/svg"><g data-element-id="SequenceFlow_0d72chn_label" class="djs-element djs-shape" transform="matrix(1,0,0,1,169,227)" style="display: none;"><g class="djs-visual"><text class=" djs-label" style="font-family: Arial, sans-serif; font-size: 11px;"><tspan x="45" y="0"></tspan></text></g><rect x="0" y="0" width="90" height="20" fill="none" stroke="#ffffff" style="stroke-opacity: 0; stroke-width: 15;" class="djs-hit"></rect><rect x="-6" y="-6" width="102" height="32" fill="none" style="" class="djs-outline"></rect></g></g><g class="djs-group" xmlns="http://www.w3.org/2000/svg"><g data-element-id="SequenceFlow_1d7ai8l" class="djs-element djs-connection" style="display: block;"><g class="djs-visual"><path d="m  190,237L272,237 " fill="none" stroke="#000000" style="stroke-width: 2; stroke-linejoin: round; marker-end: url(&quot;#markerSk1fw9a9c4u9&quot;);"></path></g><polyline points="190,237 272,237 " fill="none" stroke="#ffffff" style="stroke-opacity: 0; stroke-width: 15;" class="djs-hit"></polyline><rect x="184" y="231" width="94" height="12" fill="none" style="" class="djs-outline"></rect></g></g><g class="djs-group" xmlns="http://www.w3.org/2000/svg"><g data-element-id="SequenceFlow_1d7ai8l_label" class="djs-element djs-shape" transform="matrix(1,0,0,1,186,227)" style="display: none;"><g class="djs-visual"><text class=" djs-label" style="font-family: Arial, sans-serif; font-size: 11px;"><tspan x="45" y="0"></tspan></text></g><rect x="0" y="0" width="90" height="20" fill="none" stroke="#ffffff" style="stroke-opacity: 0; stroke-width: 15;" class="djs-hit"></rect><rect x="-6" y="-6" width="102" height="32" fill="none" style="" class="djs-outline"></rect></g></g><g class="djs-group" xmlns="http://www.w3.org/2000/svg"><g data-element-id="SequenceFlow_0vi5596" class="djs-element djs-connection" style="display: block;"><g class="djs-visual"><path d="m  165,212L165,67 " fill="none" stroke="#000000" style="stroke-width: 2; stroke-linejoin: round; marker-end: url(&quot;#markerSk1fw9a9c4u9&quot;);"></path></g><polyline points="165,212 165,67 " fill="none" stroke="#ffffff" style="stroke-opacity: 0; stroke-width: 15;" class="djs-hit"></polyline><rect x="159" y="61" width="12" height="157" fill="none" style="" class="djs-outline"></rect></g></g><g class="djs-group" xmlns="http://www.w3.org/2000/svg"><g data-element-id="SequenceFlow_0vi5596_label" class="djs-element djs-shape" transform="matrix(1,0,0,1,120,130)" style="display: none;"><g class="djs-visual"><text class=" djs-label" style="font-family: Arial, sans-serif; font-size: 11px;"><tspan x="45" y="0"></tspan></text></g><rect x="0" y="0" width="90" height="20" fill="none" stroke="#ffffff" style="stroke-opacity: 0; stroke-width: 15;" class="djs-hit"></rect><rect x="-6" y="-6" width="102" height="32" fill="none" style="" class="djs-outline"></rect></g></g><g class="djs-group" xmlns="http://www.w3.org/2000/svg"><g data-element-id="EndEvent_1nr2e7p_label" class="djs-element djs-shape" transform="matrix(1,0,0,1,761,255)" style="display: none;"><g class="djs-visual"><text class=" djs-label" style="font-family: Arial, sans-serif; font-size: 11px;"><tspan x="45" y="0"></tspan></text></g><rect x="0" y="0" width="90" height="20" fill="none" stroke="#ffffff" style="stroke-opacity: 0; stroke-width: 15;" class="djs-hit"></rect><rect x="-6" y="-6" width="102" height="32" fill="none" style="" class="djs-outline"></rect></g></g><g class="djs-group" xmlns="http://www.w3.org/2000/svg"><g data-element-id="SequenceFlow_1ey9e1k" class="djs-element djs-connection" style="display: block;"><g class="djs-visual"><path d="m  693,237L788,237 " fill="none" stroke="#000000" style="stroke-width: 2; stroke-linejoin: round; marker-end: url(&quot;#markerSk1fw9a9c4u9&quot;);"></path></g><polyline points="693,237 788,237 " fill="none" stroke="#ffffff" style="stroke-opacity: 0; stroke-width: 15;" class="djs-hit"></polyline><rect x="687" y="231" width="107" height="12" fill="none" style="" class="djs-outline"></rect></g></g><g class="djs-group" xmlns="http://www.w3.org/2000/svg"><g data-element-id="SequenceFlow_1ey9e1k_label" class="djs-element djs-shape" transform="matrix(1,0,0,1,695.5,227)" style="display: none;"><g class="djs-visual"><text class=" djs-label" style="font-family: Arial, sans-serif; font-size: 11px;"><tspan x="45" y="0"></tspan></text></g><rect x="0" y="0" width="90" height="20" fill="none" stroke="#ffffff" style="stroke-opacity: 0; stroke-width: 15;" class="djs-hit"></rect><rect x="-6" y="-6" width="102" height="32" fill="none" style="" class="djs-outline"></rect></g></g><g class="djs-group" xmlns="http://www.w3.org/2000/svg"><g data-element-id="ExclusiveGateway_1dkdx30_label" class="djs-element djs-shape" transform="matrix(1,0,0,1,623,262)" style="display: none;"><g class="djs-visual"><text class=" djs-label" style="font-family: Arial, sans-serif; font-size: 11px;"><tspan x="45" y="0"></tspan></text></g><rect x="0" y="0" width="90" height="20" fill="none" stroke="#ffffff" style="stroke-opacity: 0; stroke-width: 15;" class="djs-hit"></rect><rect x="-6" y="-6" width="102" height="32" fill="none" style="" class="djs-outline"></rect></g></g><g class="djs-group" xmlns="http://www.w3.org/2000/svg"><g data-element-id="SequenceFlow_19yx2xf" class="djs-element djs-connection" style="display: block;"><g class="djs-visual"><path d="m  668,212L668,49 L183,49 " fill="none" stroke="#000000" style="stroke-width: 2; stroke-linejoin: round; marker-end: url(&quot;#markerSk1fw9a9c4u9&quot;);"></path></g><polyline points="668,212 668,49 183,49 " fill="none" stroke="#ffffff" style="stroke-opacity: 0; stroke-width: 15;" class="djs-hit"></polyline><rect x="177" y="43" width="497" height="175" fill="none" style="" class="djs-outline"></rect></g></g><g class="djs-group" xmlns="http://www.w3.org/2000/svg"><g data-element-id="SequenceFlow_19yx2xf_label" class="djs-element djs-shape" transform="matrix(1,0,0,1,623,120.5)" style="display: none;"><g class="djs-visual"><text class=" djs-label" style="font-family: Arial, sans-serif; font-size: 11px;"><tspan x="45" y="0"></tspan></text></g><rect x="0" y="0" width="90" height="20" fill="none" stroke="#ffffff" style="stroke-opacity: 0; stroke-width: 15;" class="djs-hit"></rect><rect x="-6" y="-6" width="102" height="32" fill="none" style="" class="djs-outline"></rect></g></g></svg>